<svg width="25" height="22" viewBox="0 0 25 22" fill="none" xmlns="http://www.w3.org/2000/svg">
<path d="M7.99848 6.08444C8.13906 6.14767 8.22865 6.23722 8.33592 6.3518C8.35372 6.3707 8.37153 6.3896 8.38987 6.40908C8.44938 6.47237 8.50861 6.53595 8.56785 6.59953C8.61049 6.64499 8.65315 6.69045 8.69583 6.73588C8.81159 6.85923 8.92711 6.98283 9.04259 7.10647C9.16333 7.23566 9.28429 7.36462 9.40522 7.4936C9.63418 7.73787 9.86294 7.98234 10.0916 8.22689C10.352 8.5053 10.6126 8.78347 10.8732 9.06163C11.4093 9.6338 11.9451 10.2063 12.4807 10.7789C12.7228 10.5658 12.9434 10.3325 13.1649 10.0955C13.2061 10.0517 13.2472 10.0078 13.2884 9.96398C13.3994 9.84566 13.5104 9.72721 13.6212 9.60873C13.7374 9.48467 13.8537 9.36073 13.97 9.23677C14.1898 9.00235 14.4095 8.76782 14.6293 8.53325C14.8795 8.26608 15.1299 7.99902 15.3803 7.73197C15.8951 7.18292 16.4097 6.63373 16.9242 6.08444C17.0488 6.14756 17.132 6.2138 17.2291 6.31897C17.2702 6.36316 17.2702 6.36316 17.3121 6.40825C17.3403 6.43898 17.3685 6.46972 17.3976 6.50138C17.4264 6.53244 17.4552 6.56349 17.4848 6.59548C17.5557 6.67203 17.6265 6.74876 17.697 6.82567C17.5862 7.04017 17.4638 7.23937 17.33 7.43822C17.2885 7.50031 17.247 7.5624 17.2056 7.62449C17.1845 7.65596 17.1634 7.68742 17.1417 7.71984C17.043 7.86754 16.945 8.01579 16.847 8.16401C16.8083 8.22235 16.7697 8.28069 16.731 8.33903C16.7024 8.38234 16.7024 8.38234 16.6731 8.42653C16.306 8.98074 15.9389 9.53495 15.5719 10.0892C15.5527 10.1181 15.5336 10.147 15.5139 10.1767C15.4753 10.2349 15.4368 10.293 15.3983 10.3511C15.2997 10.5 15.2012 10.6489 15.1027 10.7979C15.0828 10.8281 15.0628 10.8583 15.0423 10.8894C15.0029 10.9489 14.9636 11.0085 14.9244 11.068C14.839 11.1971 14.7532 11.3255 14.664 11.4516C14.636 11.4912 14.6081 11.5308 14.5793 11.5716C14.5552 11.605 14.5312 11.6383 14.5064 11.6727C14.4461 11.7761 14.4235 11.8523 14.4127 11.9731C14.4482 12.0901 14.4482 12.0901 14.5286 12.179C14.6336 12.2247 14.6336 12.2247 14.7604 12.2202C14.8644 12.1603 14.9495 12.1021 15.043 12.0272C15.0697 12.0066 15.0965 11.9861 15.1241 11.9649C15.1808 11.9214 15.2372 11.8776 15.2935 11.8336C15.4024 11.7487 15.5127 11.6662 15.6232 11.5836C15.7056 11.522 15.7878 11.4601 15.87 11.3981C16.0345 11.2738 16.1992 11.1499 16.364 11.026C16.4187 10.9848 16.4734 10.9436 16.5282 10.9025C16.6377 10.8201 16.7471 10.7377 16.8566 10.6554C16.8837 10.635 16.9108 10.6146 16.9387 10.5936C16.9935 10.5524 17.0484 10.5111 17.1032 10.4699C17.2386 10.368 17.3741 10.2661 17.5094 10.1641C17.8356 9.91846 18.1624 9.67387 18.4897 9.42997C18.8058 9.19433 19.1209 8.95731 19.4358 8.71994C19.615 8.88076 19.7895 9.04516 19.9575 9.21924C19.9787 9.24032 19.9999 9.26139 20.0217 9.2831C20.0818 9.34568 20.0818 9.34568 20.17 9.46117C20.1631 9.62573 20.0675 9.70918 19.9624 9.82079C19.9358 9.84926 19.9358 9.84926 19.9087 9.87829C19.8493 9.94182 19.7895 10.0049 19.7297 10.068C19.687 10.1134 19.6444 10.1589 19.6018 10.2044C19.4859 10.3278 19.3698 10.4509 19.2535 10.5739C19.1321 10.7025 19.0111 10.8315 18.89 10.9604C18.6606 11.2045 18.4309 11.4483 18.2011 11.6919C17.9395 11.9693 17.6782 12.2471 17.417 12.5249C16.8796 13.0963 16.3418 13.6673 15.8037 14.238C15.8598 14.3756 15.9303 14.4652 16.03 14.5704C16.0611 14.6034 16.0922 14.6364 16.1243 14.6704C16.1584 14.7063 16.1926 14.7422 16.2278 14.7791C16.283 14.8375 16.3382 14.8959 16.3933 14.9544C16.4526 15.017 16.512 15.0796 16.5714 15.1422C16.6954 15.2728 16.819 15.4038 16.9426 15.5348C17.294 15.9074 17.6459 16.2795 17.9981 16.6512C18.1927 16.8565 18.387 17.0622 18.581 17.2681C18.7037 17.3983 18.8266 17.5281 18.9499 17.6576C19.0447 17.7575 19.1391 17.8579 19.2335 17.9583C19.2846 18.0116 19.2846 18.0116 19.3366 18.066C19.6769 18.4298 19.7952 18.7463 19.7957 19.2562C19.7855 19.8266 19.4085 20.2099 19.0485 20.593C19.0197 20.6239 18.9909 20.6548 18.9612 20.6866C18.9007 20.7513 18.8401 20.8159 18.7794 20.8804C18.6873 20.9784 18.5958 21.077 18.5042 21.1756C18.445 21.2388 18.3857 21.302 18.3264 21.3652C18.2995 21.3943 18.2726 21.4233 18.2448 21.4533C17.8869 21.8312 17.6146 21.9879 17.1126 21.9952C17.0737 21.9968 17.0347 21.9983 16.9946 21.9999C16.4421 22.0068 16.1329 21.6231 15.7601 21.2355C15.5288 20.9924 15.2995 20.7472 15.0701 20.502C14.9963 20.4232 14.9225 20.3445 14.8486 20.2657C14.6753 20.0809 14.5021 19.896 14.3289 19.711C14.1315 19.5001 13.9339 19.2893 13.7363 19.0785C13.3305 18.6456 12.9249 18.2126 12.5193 17.7795C12.305 17.9695 12.1075 18.1722 11.9115 18.3833C11.8789 18.4183 11.8462 18.4533 11.8126 18.4893C11.7238 18.5846 11.635 18.6799 11.5463 18.7752C11.4529 18.8755 11.3593 18.9755 11.2658 19.0756C10.9478 19.4158 10.6301 19.7562 10.3127 20.097C10.137 20.2857 9.96116 20.4741 9.78506 20.6622C9.69214 20.7615 9.59933 20.861 9.50677 20.9607C9.40341 21.0719 9.29969 21.1828 9.19588 21.2936C9.1507 21.3425 9.1507 21.3425 9.1046 21.3924C8.73493 21.785 8.43428 21.9945 7.91154 21.9952C7.87244 21.9963 7.83334 21.9973 7.79306 21.9983C7.28466 22.0004 7.03437 21.7246 6.68473 21.3621C6.6617 21.3384 6.63866 21.3146 6.61493 21.2901C6.46458 21.1348 6.31553 20.9781 6.16723 20.8205C6.0902 20.7388 6.01277 20.6576 5.93534 20.5763C5.21317 19.8132 5.21317 19.8132 5.20172 19.2739C5.2036 18.5466 5.53603 18.2145 5.99849 17.7237C6.03321 17.6867 6.06792 17.6497 6.10368 17.6116C6.19794 17.5111 6.29232 17.4108 6.38671 17.3105C6.48569 17.2053 6.58456 17.0999 6.68344 16.9946C6.87029 16.7956 7.05723 16.5967 7.24421 16.3978C7.45725 16.1713 7.67018 15.9446 7.8831 15.7178C8.32072 15.2519 8.75847 14.7861 9.19631 14.3204C9.13722 14.1712 9.05414 14.0768 8.94665 13.9634C8.92904 13.9447 8.91144 13.926 8.89329 13.9068C8.83435 13.8443 8.77514 13.7822 8.71593 13.72C8.67358 13.6752 8.63125 13.6304 8.58894 13.5856C8.49785 13.4892 8.40666 13.3929 8.31537 13.2968C8.17115 13.1448 8.02728 12.9924 7.88348 12.8399C7.47454 12.4065 7.06522 11.9734 6.65533 11.541C6.42891 11.3021 6.20283 11.0629 5.97713 10.8232C5.83416 10.6715 5.69078 10.5202 5.54707 10.3692C5.45794 10.2754 5.36921 10.1811 5.2806 10.0867C5.23932 10.0429 5.19787 9.99925 5.15625 9.95581C5.09962 9.89666 5.04364 9.83682 4.98769 9.77694C4.95613 9.7436 4.92456 9.71026 4.89204 9.67591C4.83003 9.58471 4.83003 9.58471 4.83545 9.49552C4.8804 9.39331 4.94045 9.32964 5.01613 9.25077C5.04565 9.21972 5.07516 9.18866 5.10556 9.15667C5.13657 9.12466 5.16758 9.09265 5.19952 9.05967C5.23068 9.02703 5.26183 8.99438 5.29393 8.96074C5.37088 8.88019 5.44809 8.79994 5.52554 8.71994C5.86732 8.9451 6.19447 9.18889 6.52161 9.43727C6.65942 9.54175 6.79767 9.64557 6.93589 9.74943C6.99063 9.79061 7.04537 9.83179 7.10011 9.87297C7.12721 9.89335 7.1543 9.91374 7.18222 9.93474C8.74229 11.1084 8.74229 11.1084 8.82448 11.1702C8.87896 11.2112 8.93345 11.2522 8.98794 11.2931C9.1578 11.4209 9.32749 11.5488 9.49708 11.677C9.58006 11.7395 9.66324 11.8017 9.74647 11.8639C9.83265 11.9283 9.91764 11.9936 10.0022 12.0605C10.1695 12.1903 10.1695 12.1903 10.37 12.2279C10.4763 12.1852 10.4763 12.1852 10.5487 12.089C10.6014 11.931 10.5722 11.8805 10.5101 11.7261C10.4335 11.5939 10.349 11.4685 10.2637 11.3426C10.2395 11.3063 10.2153 11.27 10.1904 11.2327C10.1407 11.1581 10.0908 11.0837 10.0409 11.0094C9.95633 10.8834 9.87258 10.7569 9.78894 10.6303C9.73227 10.5445 9.67547 10.4588 9.61863 10.3731C9.50353 10.1996 9.38855 10.026 9.27359 9.85238C9.23495 9.79404 9.19631 9.7357 9.15767 9.67737C8.92583 9.32734 8.69399 8.97731 8.46216 8.62728C8.43345 8.58395 8.43345 8.58395 8.40417 8.53974C8.36562 8.48154 8.32708 8.42333 8.28853 8.36513C8.19056 8.21718 8.09253 8.06927 7.99441 7.92144C7.76206 7.57126 7.53123 7.22007 7.30297 6.86685C7.51743 6.5875 7.75754 6.33748 7.99848 6.08444Z" fill="black"/>
<path d="M14.8763 1.22523C15.3864 1.93031 15.5649 2.77973 15.4946 3.65484C15.4461 4.01268 15.3466 4.36559 15.1855 4.68433C15.1693 4.71708 15.1531 4.74983 15.1364 4.78358C14.709 5.5954 14.0371 6.09151 13.2174 6.35017C12.4204 6.57497 11.6276 6.37424 10.9249 5.96154C10.822 5.89743 10.7241 5.82708 10.626 5.755C10.6474 5.59294 10.7172 5.51872 10.824 5.40476C10.8583 5.3678 10.8927 5.33085 10.9281 5.29278C10.9664 5.25214 11.0048 5.21151 11.0431 5.17088C11.0833 5.12788 11.1235 5.08485 11.1637 5.0418C11.2728 4.92496 11.3822 4.80851 11.4918 4.69215C11.6063 4.57044 11.7205 4.44842 11.8348 4.32645C12.0267 4.12171 12.2188 3.91724 12.4111 3.71291C12.6336 3.47646 12.8556 3.23957 13.0775 3.00245C13.2678 2.79903 13.4584 2.59585 13.6492 2.39288C13.7632 2.27157 13.8771 2.15019 13.9908 2.02859C14.0977 1.91433 14.2048 1.80039 14.3122 1.68667C14.3516 1.64481 14.391 1.60284 14.4302 1.56076C14.4836 1.5035 14.5374 1.44666 14.5912 1.38984C14.6213 1.35786 14.6513 1.32589 14.6823 1.29294C14.7604 1.22523 14.7604 1.22523 14.8763 1.22523ZM14.6735 1.71167C14.5938 1.7986 14.5938 1.7986 14.6059 1.92529C14.7118 1.91003 14.7831 1.89704 14.8691 1.82749C14.9264 1.75776 14.9264 1.75776 14.915 1.63703C14.7619 1.61981 14.7619 1.61981 14.6735 1.71167ZM14.234 2.19296C14.2037 2.22693 14.1734 2.2609 14.1422 2.29591C14.1549 2.33667 14.1677 2.37744 14.1808 2.41944C14.272 2.40269 14.3299 2.38246 14.4054 2.32422C14.4614 2.25634 14.4614 2.25634 14.4392 2.16465C14.4261 2.1277 14.4261 2.1277 14.4127 2.09001C14.3214 2.08054 14.3214 2.08054 14.234 2.19296ZM13.7848 2.65623C13.7062 2.7417 13.7062 2.7417 13.7268 2.84154C13.7364 2.86532 13.7459 2.8891 13.7558 2.9136C13.8512 2.86617 13.9122 2.82927 13.9876 2.74888C13.9876 2.69453 13.9876 2.64017 13.9876 2.58416C13.8686 2.57152 13.8686 2.57152 13.7848 2.65623ZM13.4467 3.03714C13.3477 3.13236 13.3477 3.13236 13.2535 3.24304C13.2535 3.28381 13.2535 3.32457 13.2535 3.36658C13.3465 3.36191 13.3465 3.36191 13.4467 3.3254C13.5179 3.22405 13.5179 3.22405 13.5626 3.1195C13.5243 3.09232 13.4861 3.06514 13.4467 3.03714ZM12.8816 3.63425C12.8513 3.66822 12.821 3.70219 12.7898 3.7372C12.8025 3.77796 12.8153 3.81873 12.8284 3.86073C12.9196 3.84398 12.9776 3.82375 13.053 3.76551C13.109 3.69763 13.109 3.69763 13.0868 3.60593C13.0737 3.56899 13.0737 3.56899 13.0603 3.5313C12.969 3.52183 12.969 3.52183 12.8816 3.63425ZM12.5193 4.02545C12.4556 4.10699 12.3918 4.18852 12.3261 4.27253C12.3835 4.3133 12.3835 4.3133 12.442 4.35489C12.5934 4.23983 12.5934 4.23983 12.6739 4.06663C12.6229 4.05304 12.5719 4.03945 12.5193 4.02545ZM11.9687 4.59425C11.889 4.68118 11.889 4.68118 11.9011 4.80787C12.007 4.79261 12.0783 4.77962 12.1643 4.71007C12.2216 4.64034 12.2216 4.64034 12.2102 4.51961C12.0571 4.50239 12.0571 4.50239 11.9687 4.59425ZM11.5292 5.07554C11.4989 5.10951 11.4686 5.14348 11.4374 5.17848C11.4502 5.21925 11.4629 5.26002 11.476 5.30202C11.5672 5.28527 11.6252 5.26504 11.7006 5.2068C11.7566 5.13892 11.7566 5.13892 11.7345 5.04722C11.7213 5.01028 11.7213 5.01028 11.7079 4.97259C11.6166 4.96312 11.6166 4.96312 11.5292 5.07554ZM11.1133 5.52079C11.0968 5.54372 11.0802 5.56665 11.0631 5.59028C11.0336 5.63105 11.0041 5.67182 10.9737 5.71382C11.0502 5.75459 11.0502 5.75459 11.1283 5.79618C11.2088 5.72414 11.2088 5.72414 11.2829 5.63146C11.2829 5.5771 11.2829 5.52275 11.2829 5.46674C11.1687 5.45259 11.1687 5.45259 11.1133 5.52079Z" fill="black"/>
<path d="M14.374 0.689898C14.3526 0.851954 14.2828 0.926182 14.176 1.04014C14.1245 1.09557 14.1245 1.09557 14.0719 1.15212C14.0336 1.19276 13.9952 1.23339 13.9569 1.27401C13.9167 1.31702 13.8765 1.36005 13.8363 1.4031C13.7272 1.51994 13.6178 1.63639 13.5082 1.75275C13.3937 1.87446 13.2795 1.99648 13.1652 2.11845C12.9733 2.32318 12.7812 2.52766 12.5889 2.73199C12.3664 2.96844 12.1444 3.20533 11.9225 3.44245C11.7322 3.64587 11.5416 3.84905 11.3508 4.05202C11.2368 4.17332 11.1229 4.29471 11.0092 4.41631C10.9023 4.53056 10.7952 4.64451 10.6878 4.75823C10.6484 4.80009 10.609 4.84206 10.5698 4.88413C10.5164 4.94139 10.4626 4.99824 10.4088 5.05506C10.3787 5.08703 10.3487 5.11901 10.3177 5.15195C10.2396 5.21966 10.2396 5.21966 10.1237 5.21966C9.61741 4.51986 9.43221 3.66015 9.50543 2.79006C9.55499 2.43241 9.6534 2.07935 9.81454 1.76057C9.83073 1.72782 9.84692 1.69507 9.8636 1.66132C10.291 0.849493 10.9629 0.353389 11.7826 0.0947323C12.7013 -0.164408 13.615 0.132373 14.374 0.689898ZM13.8717 0.648718C13.7912 0.720756 13.7912 0.720756 13.7171 0.813437C13.7171 0.867794 13.7171 0.922151 13.7171 0.978155C13.8429 0.963792 13.8724 0.936097 13.9586 0.831453C13.981 0.798329 14.0033 0.765205 14.0263 0.731077C13.9753 0.703899 13.9243 0.67672 13.8717 0.648718ZM13.3211 1.21494C13.2425 1.30041 13.2425 1.30041 13.2631 1.40025C13.2727 1.42403 13.2823 1.44781 13.2921 1.47231C13.4036 1.41907 13.4804 1.3628 13.5626 1.26641C13.5498 1.22565 13.5371 1.18488 13.524 1.14287C13.4049 1.13023 13.4049 1.13023 13.3211 1.21494ZM12.8574 1.71167C12.7777 1.7986 12.7777 1.7986 12.7898 1.92529C12.8957 1.91003 12.967 1.89704 13.053 1.82749C13.1103 1.75776 13.1103 1.75776 13.0989 1.63703C12.9458 1.61981 12.9458 1.61981 12.8574 1.71167ZM12.558 2.09001C12.4066 2.20507 12.4066 2.20507 12.3261 2.37827C12.3771 2.39185 12.4281 2.40544 12.4807 2.41944C12.5444 2.33791 12.6082 2.25637 12.6739 2.17237C12.6356 2.14519 12.5974 2.11801 12.558 2.09001ZM11.9687 2.65623C11.8901 2.7417 11.8901 2.7417 11.9107 2.84154C11.9203 2.86532 11.9299 2.8891 11.9397 2.9136C12.0512 2.86036 12.128 2.80409 12.2102 2.7077C12.1975 2.66693 12.1847 2.62617 12.1716 2.58416C12.0525 2.57152 12.0525 2.57152 11.9687 2.65623ZM11.592 3.07832C11.5043 3.17793 11.5043 3.17793 11.4374 3.28422C11.4757 3.32499 11.5139 3.36575 11.5533 3.40776C11.6523 3.31254 11.6523 3.31254 11.7465 3.20186C11.7465 3.16109 11.7465 3.12032 11.7465 3.07832C11.6955 3.07832 11.6445 3.07832 11.592 3.07832ZM11.0848 3.60336C10.9959 3.697 10.9959 3.697 11.0124 3.86073C11.1035 3.84398 11.1615 3.82375 11.237 3.76551C11.2929 3.69763 11.2929 3.69763 11.2708 3.60593C11.2576 3.56899 11.2576 3.56899 11.2442 3.5313C11.1591 3.52257 11.1591 3.52257 11.0848 3.60336ZM10.6163 4.09752C10.5377 4.18299 10.5377 4.18299 10.5584 4.28283C10.5679 4.30661 10.5775 4.33039 10.5873 4.35489C10.6988 4.30165 10.7756 4.24538 10.8578 4.14899C10.8451 4.10822 10.8323 4.06746 10.8192 4.02545C10.7001 4.01281 10.7001 4.01281 10.6163 4.09752ZM10.1526 4.59425C10.073 4.68118 10.073 4.68118 10.085 4.80787C10.191 4.79261 10.2622 4.77962 10.3483 4.71007C10.4055 4.64034 10.4055 4.64034 10.3941 4.51961C10.241 4.50239 10.241 4.50239 10.1526 4.59425Z" fill="black"/>
<path d="M18.0834 7.31983C18.2251 7.38321 18.3147 7.47445 18.4221 7.59039C18.4565 7.62729 18.4909 7.66418 18.5263 7.70219C18.5618 7.74078 18.5974 7.77937 18.634 7.81913C18.6706 7.85845 18.7071 7.89776 18.7436 7.93704C18.8329 8.03311 18.9219 8.12936 19.0108 8.22578C18.9562 8.36578 18.897 8.43055 18.78 8.51533C18.7331 8.54974 18.7331 8.54974 18.6853 8.58484C18.6517 8.60904 18.618 8.63324 18.5833 8.65817C18.5126 8.70995 18.4418 8.76175 18.3711 8.81356C18.3356 8.8394 18.3001 8.86523 18.2635 8.89186C18.1163 8.99945 17.9706 9.10921 17.825 9.21924C17.7713 9.25968 17.7177 9.30011 17.664 9.34053C17.6376 9.3604 17.6112 9.38026 17.5841 9.40073C17.4753 9.48267 17.3665 9.56453 17.2576 9.64639C17.2032 9.68733 17.1488 9.72828 17.0944 9.76923C16.9513 9.87686 16.8082 9.98443 16.6651 10.0919C16.6353 10.1143 16.6055 10.1366 16.5748 10.1597C16.5178 10.2025 16.4608 10.2453 16.4038 10.2881C16.3652 10.3171 16.3652 10.3171 16.3258 10.3467C16.3019 10.3646 16.2781 10.3825 16.2535 10.4009C16.2011 10.441 16.1499 10.4829 16.0991 10.5253C16.0355 10.573 16.0355 10.573 15.9582 10.573C16.0282 10.4068 16.1267 10.2613 16.2239 10.1123C16.2427 10.0834 16.2614 10.0545 16.2807 10.0247C16.4739 9.72765 16.6696 9.43247 16.8657 9.13755C16.9433 9.02068 17.0208 8.90368 17.0983 8.78667C17.1367 8.72866 17.1751 8.67066 17.2135 8.61267C17.3131 8.46231 17.4127 8.31186 17.512 8.16128C17.5325 8.13028 17.5529 8.09928 17.574 8.06734C17.6127 8.00876 17.6513 7.95016 17.6899 7.89152C17.8177 7.69816 17.9494 7.50831 18.0834 7.31983Z" fill="black"/>
<path d="M6.83929 7.31983C6.96607 7.37661 7.02597 7.43338 7.10117 7.55533C7.12074 7.58653 7.14031 7.61774 7.16047 7.6499C7.1812 7.68366 7.20192 7.71743 7.22327 7.75222C7.26827 7.82396 7.31336 7.89565 7.35851 7.96728C7.38142 8.00371 7.40434 8.04013 7.42794 8.07765C7.53049 8.23842 7.63739 8.39563 7.74491 8.55265C7.94608 8.84731 8.14345 9.14456 8.33894 9.44354C8.45031 9.61385 8.56212 9.78378 8.67528 9.95276C8.69674 9.98487 8.71821 10.017 8.74032 10.0501C8.78089 10.1107 8.82157 10.1712 8.86237 10.2316C8.93783 10.3445 9.00037 10.4407 9.04175 10.573C8.87002 10.5114 8.7376 10.4107 8.59498 10.2951C8.36197 10.1095 8.12605 9.92921 7.88739 9.752C7.8546 9.72763 7.82181 9.70326 7.78802 9.67815C7.72232 9.62932 7.65661 9.5805 7.5909 9.53169C7.39378 9.38496 7.19756 9.23689 7.00125 9.08895C6.88739 9.00315 6.77336 8.91761 6.65923 8.83222C6.61471 8.79886 6.61471 8.79886 6.5693 8.76484C6.51274 8.72247 6.45614 8.68014 6.39951 8.63788C6.25894 8.53247 6.12212 8.42453 5.98922 8.30814C6.04869 8.15711 6.13431 8.06165 6.24309 7.94718C6.29502 7.89223 6.29502 7.89223 6.348 7.83618C6.38421 7.79828 6.42042 7.76038 6.45773 7.72133C6.49462 7.68242 6.5315 7.6435 6.56836 7.60455C6.6585 7.50945 6.74882 7.41456 6.83929 7.31983Z" fill="black"/>
<path d="M14.5346 0.90126C14.6059 0.936976 14.6059 0.936976 14.6831 1.01934C14.6735 1.17977 14.5881 1.25984 14.4854 1.36985C14.434 1.42537 14.434 1.42537 14.3815 1.48202C14.3432 1.52272 14.3049 1.56342 14.2666 1.6041C14.2265 1.64718 14.1863 1.69027 14.1463 1.73339C14.0373 1.85041 13.928 1.96702 13.8186 2.08354C13.7274 2.18077 13.6363 2.27817 13.5452 2.37557C13.3305 2.60523 13.1154 2.83456 12.9002 3.06369C12.6779 3.30034 12.4561 3.53759 12.2347 3.77514C12.0446 3.97891 11.8543 4.18228 11.6636 4.38533C11.5496 4.50669 11.4358 4.6282 11.3224 4.7501C11.2158 4.86464 11.1087 4.97867 11.0013 5.09233C10.9619 5.1342 10.9226 5.17625 10.8835 5.21848C10.8303 5.27594 10.7764 5.33272 10.7225 5.38945C10.6925 5.42146 10.6625 5.45347 10.6316 5.48646C10.5487 5.5491 10.5487 5.5491 10.4654 5.54364C10.3941 5.50792 10.3941 5.50792 10.3169 5.42556C10.3265 5.26512 10.4119 5.18506 10.5146 5.07504C10.5489 5.03803 10.5832 5.00102 10.6185 4.96288C10.6568 4.92218 10.6951 4.88148 10.7334 4.84079C10.7735 4.79772 10.8137 4.75463 10.8537 4.7115C10.9627 4.59449 11.072 4.47788 11.1814 4.36136C11.2726 4.26413 11.3637 4.16673 11.4548 4.06933C11.6695 3.83966 11.8846 3.61034 12.0998 3.38121C12.3221 3.14456 12.5439 2.90731 12.7653 2.66976C12.9554 2.46599 13.1457 2.26262 13.3364 2.05956C13.4504 1.93821 13.5642 1.8167 13.6776 1.6948C13.7842 1.58026 13.8913 1.46623 13.9987 1.35257C14.0381 1.3107 14.0774 1.26865 14.1165 1.22642C14.1697 1.16896 14.2236 1.11218 14.2775 1.05545C14.3225 1.00743 14.3225 1.00743 14.3684 0.958439C14.4513 0.895796 14.4513 0.895796 14.5346 0.90126Z" fill="black"/>
<path d="M19.5131 5.67264C19.6641 5.73788 19.7652 5.84833 19.8772 5.97023C19.8967 5.99113 19.9162 6.01204 19.9363 6.03358C19.9983 6.1001 20.06 6.1669 20.1217 6.23371C20.1638 6.27899 20.2059 6.32424 20.248 6.36948C20.351 6.48015 20.4537 6.59107 20.5564 6.70213C20.5025 6.83193 20.4395 6.91881 20.3448 7.01806C20.3189 7.0454 20.293 7.07273 20.2663 7.1009C20.2393 7.12898 20.2123 7.15706 20.1845 7.186C20.1572 7.21471 20.1299 7.24343 20.1017 7.27302C20.0345 7.34372 19.9671 7.41422 19.8995 7.48455C19.7485 7.41931 19.6474 7.30886 19.5354 7.18696C19.5159 7.16605 19.4964 7.14515 19.4763 7.12361C19.4143 7.05709 19.3526 6.99029 19.2909 6.92347C19.2488 6.8782 19.2067 6.83295 19.1646 6.78771C19.0616 6.67704 18.9588 6.56612 18.8562 6.45506C18.9101 6.32525 18.9731 6.23838 19.0678 6.13913C19.1067 6.09812 19.1067 6.09812 19.1463 6.05629C19.1733 6.02821 19.2003 6.00013 19.2281 5.97119C19.2554 5.94248 19.2827 5.91376 19.3108 5.88417C19.3781 5.81347 19.4455 5.74297 19.5131 5.67264Z" fill="black"/>
<path d="M5.40963 5.67264C5.53142 5.73002 5.61294 5.7972 5.70606 5.89816C5.73172 5.92577 5.75737 5.95337 5.7838 5.98181C5.82332 6.02497 5.82332 6.02497 5.86364 6.069C5.89059 6.09809 5.91753 6.12717 5.9453 6.15715C6.01164 6.22881 6.07779 6.30067 6.14378 6.3727C6.08256 6.53365 5.97893 6.64134 5.86455 6.76069C5.84493 6.78148 5.82531 6.80226 5.8051 6.82368C5.74269 6.88974 5.68001 6.95551 5.61731 7.02128C5.57483 7.06614 5.53237 7.11102 5.48992 7.15591C5.38608 7.26568 5.282 7.37518 5.17779 7.48455C5.05599 7.42717 4.97448 7.35999 4.88135 7.25902C4.8557 7.23142 4.83005 7.20382 4.80362 7.17538C4.77727 7.14661 4.75092 7.11784 4.72377 7.08819C4.69683 7.0591 4.66988 7.03001 4.64212 7.00004C4.57578 6.92838 4.50963 6.85652 4.44363 6.78449C4.50485 6.62354 4.60848 6.51585 4.72287 6.3965C4.74248 6.37571 4.7621 6.35492 4.78231 6.3335C4.84473 6.26744 4.90741 6.20168 4.9701 6.13591C5.01258 6.09105 5.05504 6.04617 5.09749 6.00127C5.20133 5.89151 5.30541 5.78201 5.40963 5.67264Z" fill="black"/>
<path d="M20.6336 4.47843C20.7847 4.54367 20.8857 4.65412 20.9977 4.77602C21.0172 4.79692 21.0367 4.81783 21.0568 4.83937C21.1188 4.90589 21.1805 4.97269 21.2422 5.0395C21.2843 5.08478 21.3264 5.13003 21.3686 5.17527C21.4715 5.28594 21.5743 5.39686 21.6769 5.50792C21.6231 5.63772 21.56 5.7246 21.4653 5.82385C21.4394 5.85119 21.4135 5.87852 21.3868 5.90669C21.3598 5.93477 21.3328 5.96285 21.305 5.99178C21.2777 6.0205 21.2504 6.04922 21.2223 6.07881C21.155 6.14951 21.0876 6.22001 21.02 6.29034C20.869 6.22509 20.768 6.11465 20.656 5.99275C20.6365 5.97184 20.617 5.95094 20.5969 5.9294C20.5349 5.86288 20.4732 5.79608 20.4115 5.72926C20.3694 5.68399 20.3273 5.63873 20.2851 5.5935C20.1821 5.48283 20.0794 5.37191 19.9768 5.26084C20.0306 5.13104 20.0936 5.04417 20.1884 4.94492C20.2272 4.90391 20.2272 4.90391 20.2669 4.86208C20.2939 4.834 20.3209 4.80591 20.3487 4.77698C20.376 4.74826 20.4033 4.71955 20.4314 4.68996C20.4986 4.61926 20.5661 4.54876 20.6336 4.47843Z" fill="black"/>
<path d="M4.28908 4.47843C4.41087 4.53581 4.49239 4.60299 4.58551 4.70395C4.61117 4.73156 4.63682 4.75916 4.66325 4.7876C4.70277 4.83076 4.70277 4.83076 4.74309 4.87478C4.77004 4.90387 4.79698 4.93296 4.82475 4.96293C4.89109 5.0346 4.95724 5.10646 5.02323 5.17848C4.96201 5.33944 4.85838 5.44713 4.744 5.56647C4.72438 5.58726 4.70476 5.60805 4.68455 5.62947C4.62214 5.69553 4.55946 5.7613 4.49676 5.82706C4.45428 5.87193 4.41182 5.9168 4.36937 5.9617C4.26553 6.07147 4.16145 6.18097 4.05724 6.29034C3.93544 6.23295 3.85393 6.16577 3.7608 6.06481C3.73515 6.03721 3.7095 6.00961 3.68307 5.98117C3.65672 5.9524 3.63037 5.92362 3.60322 5.89398C3.57628 5.86489 3.54933 5.8358 3.52157 5.80583C3.45523 5.73416 3.38908 5.66231 3.32308 5.59028C3.3843 5.42933 3.48794 5.32164 3.60232 5.20229C3.62193 5.1815 3.64155 5.16071 3.66176 5.13929C3.72418 5.07323 3.78686 5.00746 3.84955 4.9417C3.89203 4.89684 3.93449 4.85196 3.97694 4.80706C4.08078 4.6973 4.18486 4.5878 4.28908 4.47843Z" fill="black"/>
<path d="M22.9085 2.13018C23.0304 2.19278 23.1156 2.29044 23.2086 2.39258C23.2392 2.4254 23.2392 2.4254 23.2703 2.45888C23.3352 2.52867 23.3996 2.59887 23.464 2.6691C23.5079 2.71655 23.5519 2.76398 23.5959 2.81138C23.7036 2.92749 23.8109 3.04398 23.918 3.16068C23.7728 3.34403 23.6252 3.52329 23.4688 3.69602C23.4509 3.71666 23.433 3.73731 23.4145 3.75859C23.3611 3.81698 23.3611 3.81698 23.2611 3.90191C23.0992 3.89629 23.0036 3.77028 22.8957 3.65532C22.8663 3.62446 22.8663 3.62446 22.8363 3.59297C22.7951 3.54948 22.754 3.50582 22.7131 3.46202C22.6502 3.39497 22.5866 3.32885 22.5228 3.26274C22.4829 3.22036 22.4429 3.17792 22.4031 3.13542C22.3839 3.11569 22.3648 3.09595 22.345 3.07561C22.2179 2.9373 22.2179 2.9373 22.2178 2.82692C22.2964 2.6685 22.421 2.55257 22.5391 2.42717C22.5652 2.3981 22.5914 2.36904 22.6184 2.3391C22.6439 2.31184 22.6693 2.28458 22.6956 2.2565C22.7188 2.23145 22.742 2.2064 22.766 2.1806C22.8361 2.13119 22.8361 2.13119 22.9085 2.13018Z" fill="black"/>
<path d="M2.12677 2.13363C2.27871 2.21131 2.38676 2.34764 2.50441 2.47349C2.53168 2.50139 2.55895 2.52928 2.58704 2.55802C2.62541 2.59875 2.62541 2.59875 2.66455 2.6403C2.68805 2.66506 2.71155 2.68981 2.73576 2.71531C2.78213 2.79006 2.78213 2.79006 2.78221 2.86774C2.72646 2.99307 2.64163 3.0826 2.55074 3.1795C2.52179 3.21083 2.52179 3.21083 2.49225 3.24279C2.45144 3.28673 2.41047 3.33051 2.36937 3.37413C2.30646 3.44113 2.24442 3.50897 2.18239 3.5769C2.14261 3.6195 2.10279 3.66205 2.06292 3.70454C2.0444 3.72495 2.02588 3.74537 2.0068 3.7664C1.87726 3.90163 1.87726 3.90163 1.77389 3.90292C1.68321 3.85099 1.62187 3.79116 1.54989 3.71258C1.5088 3.66819 1.5088 3.66819 1.46687 3.62291C1.43868 3.59183 1.41049 3.56075 1.38144 3.52872C1.35265 3.49748 1.32386 3.46624 1.2942 3.43406C1.2232 3.35693 1.15247 3.27953 1.08199 3.20186C1.27318 2.95761 1.4765 2.72856 1.68573 2.5018C1.7184 2.46544 1.75108 2.42908 1.78474 2.39162C1.81632 2.35748 1.8479 2.32335 1.88044 2.28818C1.90891 2.25702 1.93738 2.22586 1.96672 2.19376C2.04798 2.13119 2.04798 2.13119 2.12677 2.13363Z" fill="black"/>
<path d="M24.0295 0.936895C24.1471 0.996303 24.2311 1.08671 24.3221 1.18357C24.3417 1.20415 24.3613 1.22472 24.3815 1.24592C24.4227 1.28941 24.4638 1.33306 24.5047 1.37687C24.5676 1.44392 24.6312 1.51004 24.695 1.57615C24.7349 1.61853 24.7749 1.66097 24.8147 1.70346C24.8339 1.7232 24.853 1.74294 24.8728 1.76328C24.9999 1.90159 24.9999 1.90159 25 2.01197C24.9214 2.17039 24.7968 2.28632 24.6787 2.41172C24.6526 2.44079 24.6264 2.46985 24.5994 2.49979C24.5612 2.54068 24.5612 2.54068 24.5222 2.58239C24.499 2.60744 24.4758 2.63248 24.4518 2.65829C24.3817 2.7077 24.3817 2.7077 24.3088 2.70778C24.1912 2.64838 24.1072 2.55797 24.0163 2.46111C23.9869 2.43025 23.9869 2.43025 23.9569 2.39876C23.9157 2.35527 23.8746 2.31161 23.8337 2.26781C23.7708 2.20076 23.7071 2.13464 23.6434 2.06853C23.6034 2.02615 23.5635 1.98371 23.5236 1.94121C23.5045 1.92148 23.4853 1.90174 23.4656 1.8814C23.3384 1.74309 23.3384 1.74309 23.3383 1.63271C23.4169 1.47429 23.5415 1.35836 23.6596 1.23295C23.6858 1.20389 23.712 1.17483 23.7389 1.14488C23.7644 1.11763 23.7899 1.09037 23.8161 1.06228C23.8394 1.03724 23.8626 1.01219 23.8865 0.986389C23.9567 0.936976 23.9567 0.936976 24.0295 0.936895Z" fill="black"/>
<path d="M1.00876 0.936895C1.15741 1.02065 1.26619 1.15341 1.38386 1.27928C1.41113 1.30718 1.4384 1.33507 1.4665 1.36381C1.50486 1.40454 1.50486 1.40454 1.544 1.44609C1.5675 1.47085 1.591 1.4956 1.61521 1.5211C1.66158 1.59585 1.66158 1.59585 1.66166 1.67353C1.60591 1.79886 1.52108 1.88838 1.4302 1.98529C1.40124 2.01662 1.40124 2.01662 1.3717 2.04858C1.33089 2.09252 1.28992 2.13629 1.24882 2.17992C1.18591 2.24692 1.12387 2.31476 1.06184 2.38269C1.02206 2.42529 0.982243 2.46784 0.94237 2.51033C0.923849 2.53074 0.905328 2.55116 0.886247 2.57219C0.756468 2.70768 0.756468 2.70768 0.652893 2.70778C0.504249 2.62402 0.395464 2.49127 0.277798 2.3654C0.250528 2.3375 0.223257 2.30961 0.19516 2.28087C0.169583 2.25371 0.144007 2.22656 0.117655 2.19859C0.0941542 2.17383 0.0706538 2.14908 0.0464412 2.12358C7.54681e-05 2.04883 7.54679e-05 2.04883 0 1.97115C0.0557435 1.84582 0.140571 1.75629 0.231461 1.65939C0.250765 1.6385 0.27007 1.61762 0.289959 1.5961C0.330769 1.55216 0.371733 1.50838 0.412839 1.46476C0.475749 1.39776 0.53779 1.32992 0.59982 1.26199C0.639592 1.21939 0.679412 1.17684 0.719286 1.13435C0.737807 1.11394 0.756327 1.09352 0.775409 1.07249C0.905187 0.936998 0.905187 0.936998 1.00876 0.936895Z" fill="black"/>
<path d="M21.7542 3.28422C21.993 3.49442 22.2101 3.72414 22.428 3.95854C22.4636 3.9967 22.4992 4.03487 22.536 4.07419C22.6232 4.16767 22.7104 4.26123 22.7975 4.35489C22.6516 4.54085 22.5009 4.7178 22.3386 4.88765C22.3194 4.90796 22.3002 4.92826 22.2804 4.94918C22.2339 4.99826 22.1872 5.04721 22.1406 5.09613C21.9896 5.03088 21.8885 4.92044 21.7765 4.79854C21.757 4.77763 21.7375 4.75673 21.7174 4.73519C21.6554 4.66867 21.5937 4.60186 21.532 4.53505C21.4899 4.48978 21.4478 4.44452 21.4057 4.39929C21.3027 4.28862 21.1999 4.17769 21.0973 4.06663C21.1512 3.93683 21.2142 3.84996 21.3089 3.75071C21.3478 3.7097 21.3478 3.7097 21.3874 3.66787C21.4144 3.63978 21.4414 3.6117 21.4692 3.58277C21.4965 3.55405 21.5238 3.52534 21.5519 3.49575C21.6192 3.42505 21.6866 3.35455 21.7542 3.28422Z" fill="black"/>
<path d="M3.20717 3.28422C3.38165 3.43973 3.54769 3.60032 3.70707 3.77323C3.72612 3.79372 3.74517 3.81421 3.7648 3.83532C3.81085 3.88487 3.85678 3.93456 3.90268 3.98427C3.84146 4.14522 3.73783 4.25292 3.62345 4.37226C3.60383 4.39305 3.58421 4.41384 3.564 4.43526C3.50159 4.50132 3.43891 4.56709 3.37621 4.63285C3.33373 4.67771 3.29127 4.72259 3.24882 4.76749C3.14498 4.87726 3.0409 4.98676 2.93669 5.09613C2.81489 5.03874 2.73338 4.97156 2.64025 4.8706C2.6146 4.843 2.58895 4.8154 2.56252 4.78696C2.53617 4.75818 2.50982 4.72941 2.48267 4.69977C2.45573 4.67068 2.42878 4.64159 2.40102 4.61162C2.33468 4.53995 2.26853 4.4681 2.20254 4.39607C2.39977 4.14152 2.61532 3.91022 2.83526 3.678C2.87107 3.64002 2.90688 3.60204 2.94378 3.56291C3.03149 3.46991 3.11929 3.37702 3.20717 3.28422Z" fill="black"/>
</svg>
