<svg width="103" height="103" viewBox="0 0 103 103" fill="none" xmlns="http://www.w3.org/2000/svg">
<rect x="0.5" y="0.5" width="102" height="102" rx="14.5" fill="#161616" stroke="#D2A357" stroke-width="4px"/>
<path d="M10.0377 45V25.56H16.5657C17.7337 25.56 18.6937 25.784 19.4457 26.232C20.1977 26.664 20.7577 27.304 21.1257 28.152C21.4937 28.984 21.6777 30 21.6777 31.2C21.6777 32.704 21.4297 33.856 20.9337 34.656C20.4377 35.44 19.7657 35.984 18.9177 36.288C18.0697 36.592 17.1177 36.744 16.0617 36.744H14.3337V45H10.0377ZM14.3337 33.744H15.7737C16.3017 33.744 16.7017 33.648 16.9737 33.456C17.2457 33.264 17.4217 32.976 17.5017 32.592C17.5977 32.208 17.6457 31.72 17.6457 31.128C17.6457 30.632 17.6057 30.2 17.5257 29.832C17.4617 29.448 17.2937 29.144 17.0217 28.92C16.7497 28.696 16.3257 28.584 15.7497 28.584H14.3337V33.744ZM23.7486 45V25.56H28.0446V42.096H32.5086V45H23.7486ZM33.4532 45L37.1252 25.56H42.0212L45.6452 45H41.6852L41.0372 40.896H38.1812L37.5092 45H33.4532ZM38.5652 38.328H40.6292L39.5972 30.744L38.5652 38.328ZM49.095 45V37.056L45.399 25.56H49.455L51.303 31.704L52.959 25.56H56.847L53.223 37.056V45H49.095ZM58.483 45V25.56H67.219V28.488H62.779V33.312H66.163V36.288H62.779V42.096H67.267V45H58.483ZM69.2173 45V25.56H74.5693C75.8813 25.56 77.0173 25.704 77.9773 25.992C78.9373 26.28 79.6813 26.8 80.2093 27.552C80.7533 28.288 81.0253 29.336 81.0253 30.696C81.0253 31.496 80.9613 32.208 80.8333 32.832C80.7053 33.456 80.4653 34 80.1133 34.464C79.7773 34.912 79.2893 35.288 78.6493 35.592L81.3133 45H76.8733L74.7373 36.288H73.5133V45H69.2173ZM73.5133 33.816H74.7133C75.3213 33.816 75.7933 33.712 76.1293 33.504C76.4653 33.28 76.6973 32.968 76.8253 32.568C76.9693 32.152 77.0413 31.656 77.0413 31.08C77.0413 30.248 76.8893 29.6 76.5853 29.136C76.2813 28.672 75.7213 28.44 74.9053 28.44H73.5133V33.816ZM88.6742 45.288C87.4582 45.288 86.4422 45.072 85.6262 44.64C84.8102 44.208 84.1942 43.544 83.7782 42.648C83.3622 41.736 83.1302 40.56 83.0822 39.12L86.7542 38.568C86.7702 39.4 86.8422 40.072 86.9702 40.584C87.1142 41.096 87.3062 41.464 87.5462 41.688C87.8022 41.912 88.1062 42.024 88.4582 42.024C88.9062 42.024 89.1942 41.872 89.3222 41.568C89.4662 41.264 89.5382 40.944 89.5382 40.608C89.5382 39.808 89.3462 39.136 88.9622 38.592C88.5782 38.032 88.0582 37.472 87.4022 36.912L85.7222 35.448C84.9862 34.824 84.3622 34.12 83.8502 33.336C83.3542 32.536 83.1062 31.552 83.1062 30.384C83.1062 28.736 83.5942 27.48 84.5702 26.616C85.5462 25.736 86.8742 25.296 88.5542 25.296C89.5942 25.296 90.4262 25.472 91.0502 25.824C91.6902 26.176 92.1702 26.64 92.4902 27.216C92.8262 27.776 93.0502 28.376 93.1622 29.016C93.2902 29.64 93.3622 30.24 93.3782 30.816L89.6822 31.272C89.6662 30.696 89.6262 30.2 89.5622 29.784C89.5142 29.352 89.4022 29.024 89.2262 28.8C89.0502 28.56 88.7782 28.44 88.4102 28.44C88.0102 28.44 87.7142 28.608 87.5222 28.944C87.3462 29.28 87.2582 29.616 87.2582 29.952C87.2582 30.672 87.4262 31.264 87.7622 31.728C88.1142 32.176 88.5702 32.648 89.1302 33.144L90.7382 34.56C91.5862 35.28 92.2982 36.096 92.8742 37.008C93.4662 37.92 93.7622 39.048 93.7622 40.392C93.7622 41.304 93.5542 42.136 93.1382 42.888C92.7222 43.624 92.1302 44.208 91.3622 44.64C90.6102 45.072 89.7142 45.288 88.6742 45.288Z" fill="white"/>
<rect x="19.5" y="51" width="64" height="14" fill="white"/>
<path d="M38.3341 63.144C37.6061 63.144 37.0301 63.016 36.6061 62.76C36.1821 62.504 35.8781 62.136 35.6941 61.656C35.5101 61.176 35.4181 60.604 35.4181 59.94V56.328C35.4181 55.656 35.5101 55.084 35.6941 54.612C35.8781 54.14 36.1821 53.78 36.6061 53.532C37.0301 53.276 37.6061 53.148 38.3341 53.148C39.0701 53.148 39.6501 53.276 40.0741 53.532C40.5061 53.78 40.8141 54.14 40.9981 54.612C41.1821 55.084 41.2741 55.656 41.2741 56.328V59.94C41.2741 60.604 41.1821 61.176 40.9981 61.656C40.8141 62.136 40.5061 62.504 40.0741 62.76C39.6501 63.016 39.0701 63.144 38.3341 63.144ZM38.3341 61.62C38.5581 61.62 38.7221 61.564 38.8261 61.452C38.9301 61.34 38.9981 61.196 39.0301 61.02C39.0621 60.844 39.0781 60.664 39.0781 60.48V55.8C39.0781 55.608 39.0621 55.428 39.0301 55.26C38.9981 55.084 38.9301 54.94 38.8261 54.828C38.7221 54.716 38.5581 54.66 38.3341 54.66C38.1261 54.66 37.9701 54.716 37.8661 54.828C37.7621 54.94 37.6941 55.084 37.6621 55.26C37.6301 55.428 37.6141 55.608 37.6141 55.8V60.48C37.6141 60.664 37.6261 60.844 37.6501 61.02C37.6821 61.196 37.7461 61.34 37.8421 61.452C37.9461 61.564 38.1101 61.62 38.3341 61.62ZM42.5813 63V53.28H46.7813V54.732H44.7293V57.18H46.5173V58.68H44.7293V63H42.5813ZM51.7308 63V54.876H50.2668V53.28H55.3428V54.876H53.8908V63H51.7308ZM56.2345 63V53.28H58.3825V57.216H59.8825V53.28H62.0425V63H59.8825V58.752H58.3825V63H56.2345ZM63.5227 63V53.28H67.8907V54.744H65.6707V57.156H67.3627V58.644H65.6707V61.548H67.9147V63H63.5227Z" fill="black"/>
<path d="M28.5898 93L26.2378 73.56H29.8858L31.0378 84.888L32.5018 73.584H35.3578L36.8938 84.816L38.0698 73.56H41.6698L39.3418 93H35.5978L33.9418 81.264L32.3818 93H28.5898ZM43.7642 93V73.56H52.5002V76.488H48.0602V81.312H51.4442V84.288H48.0602V90.096H52.5482V93H43.7642ZM54.4986 93V73.56H63.2346V76.488H58.7946V81.312H62.1786V84.288H58.7946V90.096H63.2826V93H54.4986ZM65.233 93V73.56H69.529V81.504L72.793 73.56H76.993L73.393 82.344L77.161 93H72.793L69.985 84.408L69.529 85.176V93H65.233Z" fill="white"/>
</svg>
