<svg width="745" height="117" viewBox="0 0 745 117" fill="none" xmlns="http://www.w3.org/2000/svg">
<path d="M97.6587 68.8C101.764 65.4445 105.799 65.3524 109.557 68.3633C113.271 71.3382 113.373 75.3404 111.679 79.5092C103.936 98.5642 89.8747 110.751 69.9676 114.876C47.4073 119.551 27.8424 112.851 12.6895 95.2442C4.80782 86.086 -0.0625266 75.2397 0.000606432 62.9366C0.0418514 54.8973 -0.0396919 46.4688 2.29 38.9441C4.41912 32.0672 8.96515 25.5223 13.7624 19.9681C26.6865 5.00496 43.6251 -1.20314 63.2243 0.190826C67.8976 0.523208 72.5593 1.89671 77.0787 3.27527C81.8371 4.72668 84.1832 9.23856 82.7505 14.4425C81.6356 18.492 78.5814 20.712 74.1319 20.0532C70.4172 19.5032 66.7525 18.6087 63.035 18.0851C36.6625 14.3704 15.3992 36.1616 16.9773 60.7167C18.1625 79.1597 32.197 94.7814 51.1374 98.2276C70.5744 101.764 91.0494 88.0236 96.1489 70.6096C96.3194 70.0275 96.9647 69.5844 97.6587 68.8Z" fill="#296CAC"/>
<path d="M646.877 89.0786C640.085 89.0786 633.792 89.0786 627.193 89.0786C627.193 68.7007 627.193 48.7863 627.193 28.0786C633.244 28.0786 639.335 27.9476 645.418 28.1164C651.189 28.2766 656.979 28.4992 662.712 29.138C675.612 30.5756 679.814 43.226 674.814 52.0928C673.147 55.0498 673.022 56.9917 675.736 59.6405C680.717 64.5027 680.803 70.7157 678.959 77.0974C677.088 83.5698 672.182 86.8842 666.147 87.9004C659.998 88.9357 653.642 88.737 646.877 89.0786ZM642.927 42.8751C642.927 46.1327 642.927 49.3902 642.927 53.0395C647.776 53.0395 652.138 53.5492 656.285 52.8237C658.348 52.4627 660.798 50.141 661.58 48.1266C662.084 46.8275 660.104 43.0442 658.848 42.8471C653.676 42.035 648.356 42.1684 642.927 42.8751ZM661.11 66.1621C655.142 65.6736 649.174 65.1851 643.185 64.6949C643.185 68.781 643.185 71.7001 643.185 75.0756C647.926 75.0756 652.379 75.1792 656.825 75.05C662.724 74.8787 664.079 72.5054 661.11 66.1621Z" fill="#296CAC"/>
<path d="M279.636 69.7586C279.57 71.2146 279.404 72.6799 280.026 73.6277C283.231 78.5109 286.639 83.2613 290.653 89.0314C283.808 89.0314 277.936 89.1178 272.073 88.9298C271.276 88.9043 270.391 87.5989 269.776 86.7245C268.179 84.4503 266.148 82.2729 265.299 79.7213C263.166 73.3174 258.549 73.5455 253.032 74.4478C253.032 79.0953 253.032 83.705 253.032 88.6944C247.615 88.6944 242.568 88.6944 237.195 88.6944C237.195 68.6676 237.195 48.6288 237.195 29.0634C249.076 29.0634 260.817 28.4339 272.449 29.2869C280.083 29.8466 287.075 38.2246 287.8 45.818C288.657 54.7947 287.89 63.4147 279.636 69.7586ZM259.315 60.0786C260.804 60.076 262.304 60.1887 263.78 60.0496C268.53 59.6022 271.495 56.6839 271.904 52.4966C272.353 47.9017 271.106 44.2022 266.257 43.1906C262.043 42.3116 257.667 42.2125 253.197 41.7516C253.197 48.3496 253.197 54.0367 253.197 60.0786C255.136 60.0786 256.761 60.0786 259.315 60.0786Z" fill="#DD5828"/>
<path d="M726.11 89.4567C715.801 90.7146 706.125 90.0371 699.297 81.7307C696.128 77.8748 694.496 72.7551 691.595 67.0908C697.646 67.0908 702.09 66.8886 706.493 67.2247C707.68 67.3154 709.183 68.8226 709.789 70.0507C713.198 76.9682 720.901 76.9424 725.994 75.3538C727.139 74.9966 728.69 73.4057 728.659 72.4264C728.616 71.051 727.582 69.024 726.419 68.4969C723.174 67.0264 719.649 66.1671 716.225 65.0997C712.489 63.9353 708.588 63.1548 705.032 61.5879C698.837 58.8583 694.004 54.3837 694.05 47.1889C694.091 40.7606 696.619 35.1945 702.692 31.5937C713.819 24.9964 730.03 24.9852 739.146 35.8047C741.983 39.1717 743.113 42.6382 742.332 48.0631C738.289 48.0631 734.155 48.2021 730.043 47.9619C729.059 47.9044 727.888 46.761 727.247 45.8158C723.747 40.6545 716.128 39.4519 711.227 43.4061C708.875 45.3033 709.718 47.8192 713.427 49.0331C719.011 50.8605 724.73 52.2764 730.31 54.1127C736.081 56.012 741.333 58.9131 743.708 64.9073C747.916 75.5298 740.83 88.402 726.11 89.4567Z" fill="#296CAC"/>
<path d="M594.01 87.4713C583.011 91.4393 572.886 91.1366 563.277 84.2761C557.351 80.0452 553.73 73.9504 553.217 67.4693C552.202 54.6538 552.917 41.7012 552.917 28.4387C557.157 28.4387 562.073 28.4387 567.653 28.4387C567.724 30.0025 567.865 31.7467 567.87 33.4912C567.893 42.8154 567.777 52.1411 567.908 61.4635C568.07 72.9169 578.6 78.9892 588.332 73.1651C593.084 70.3208 594.764 65.4577 594.837 60.1819C594.981 49.7198 594.88 39.2543 594.88 28.4365C600.162 28.4365 605.079 28.4365 610.88 28.4365C610.88 30.5192 610.938 32.7592 610.87 34.9954C610.569 44.9241 610.397 54.8605 609.863 64.7772C609.294 75.3465 603.091 82.2301 594.01 87.4713Z" fill="#296CAC"/>
<path d="M218.132 37.8295C219.529 39.5808 220.673 41.08 221.952 42.7557C217.506 45.4066 213.472 47.8116 209.134 50.3978C204.959 44.5843 199.61 40.8572 192.319 41.1228C186.721 41.3267 182.286 44.0606 179.012 48.5017C173.364 56.1649 175.369 65.7802 181.831 70.9438C191.252 78.4717 201.564 76.3797 208.613 66.0636C212.788 68.4684 216.985 70.8861 221.529 73.5035C218.049 81.7896 211.064 85.6926 203.073 88.4607C188.788 93.4098 167.975 87.1811 162.075 69.2906C156.139 51.2895 163.655 33.6784 184.155 28.2613C196.828 24.9123 208.589 27.4129 218.132 37.8295Z" fill="#DD5828"/>
<path d="M423.859 75.9597C411.959 55.6688 422.485 34.0791 440.7 28.7887C454.518 24.7754 467.061 27.2223 477.288 38.011C480.86 41.7794 480.623 42.846 476.166 45.3926C473.469 46.9342 470.798 48.5228 467.597 50.3929C463.301 43.845 457.13 40.0729 449.45 41.357C445.538 42.0111 441.117 44.3406 438.536 47.3116C431.964 54.8766 433.868 67.3411 442.037 72.5547C448.86 76.9095 460.305 76.8968 467.304 66.2631C471.484 68.6112 475.69 70.9741 479.861 73.3167C472.131 91.4374 440.284 98.328 423.859 75.9597Z" fill="#296CAC"/>
<path d="M362.975 28.0661C374.841 24.1341 395.936 31.3708 398.911 43.3325C394.978 45.5758 390.94 47.8794 386.981 50.1373C374.268 39.3679 364.443 38.318 357.639 46.8461C351.569 54.4536 352.876 66.5908 360.331 71.8469C369.07 78.0089 379.829 75.8393 386.221 66.175C390.352 68.4647 394.53 70.7806 398.662 73.0707C394.6 84.6821 380.114 91.6454 367.066 89.9307C349.584 87.6335 339.903 77.5615 337.966 61.1367C335.989 44.3778 348.82 30.268 362.975 28.0661Z" fill="#DD5828"/>
<path d="M81.2252 79.2015C63.5699 97.0109 34.3523 90.3476 27.4679 67.1191C24.0432 55.5638 26.7925 45.3478 34.9913 36.3639C41.4238 29.3154 49.279 26.6587 58.5245 27.0663C63.5685 27.2886 66.8006 30.4735 66.8746 35.4719C66.9398 39.8744 63.1707 43.8308 58.676 44.0779C48.4576 44.6396 41.674 53.0429 44.261 61.9347C47.4586 72.9247 59.8734 75.5712 68.5282 66.7475C71.9792 63.2291 76.0081 63.2728 79.4262 64.5648C83.1172 65.9601 84.6264 70.0328 83.7953 74.1845C83.4609 75.8548 82.2861 77.3567 81.2252 79.2015Z" fill="#DD5828"/>
<path d="M510.88 48.079C510.88 56.868 510.88 65.1572 510.88 73.899C521.235 73.899 531.155 73.899 541.474 73.899C541.474 79.0481 541.474 83.7476 541.474 88.7687C526.506 88.7687 511.596 88.7687 496.283 88.7687C496.283 68.7739 496.283 48.7507 496.283 28.4017C500.9 28.4017 505.484 28.4017 510.88 28.4017C510.88 34.746 510.88 41.1626 510.88 48.079Z" fill="#296CAC"/>
<path d="M321.862 30.3518C321.875 50.0781 321.875 69.3276 321.875 88.8258C316.465 88.8258 311.54 88.8258 306.246 88.8258C306.246 68.7918 306.246 48.7698 306.246 28.1634C310.959 28.1634 315.715 28.1151 320.467 28.2382C320.942 28.2505 321.39 29.3045 321.862 30.3518Z" fill="#DD5828"/>
<path d="M89.3893 28.0832C101.757 27.2763 112.224 30.5241 120.583 39.3549C121.613 40.4431 122.061 42.0829 123.275 44.4258C108.018 40.5212 96.5667 46.6174 85.1267 53.8483C77.55 58.6372 68.8906 59.1458 59.8691 56.4547C64.8734 50.146 69.931 44.0243 74.6951 37.6821C78.3813 32.7747 83.2058 29.8139 89.3893 28.0832Z" fill="#DD5828"/>
<path d="M129.526 52.2313C130.687 53.431 131.576 54.3876 132.829 55.7367C123.357 57.8404 114.654 62.2033 104.989 59.072C100.983 57.7742 96.9899 56.4247 93.0709 54.894C92.7199 54.7569 92.6199 52.4373 92.9739 52.258C104.996 46.168 117.108 44.6439 129.526 52.2313Z" fill="#DD5828"/>
</svg>
