<svg width="133" height="117" viewBox="0 0 133 117" fill="none" xmlns="http://www.w3.org/2000/svg">
<path d="M97.6587 68.8C101.764 65.4445 105.799 65.3524 109.557 68.3633C113.271 71.3382 113.373 75.3404 111.679 79.5092C103.936 98.5642 89.8747 110.751 69.9676 114.876C47.4073 119.551 27.8424 112.851 12.6895 95.2442C4.80782 86.086 -0.0625266 75.2397 0.000606432 62.9366C0.0418514 54.8973 -0.0396919 46.4688 2.29 38.9441C4.41912 32.0672 8.96515 25.5223 13.7624 19.9681C26.6865 5.00496 43.6251 -1.20314 63.2243 0.190826C67.8976 0.523208 72.5593 1.89671 77.0787 3.27527C81.8371 4.72668 84.1832 9.23856 82.7505 14.4425C81.6356 18.492 78.5814 20.712 74.1319 20.0532C70.4172 19.5032 66.7525 18.6087 63.035 18.0851C36.6625 14.3704 15.3992 36.1616 16.9773 60.7167C18.1625 79.1597 32.197 94.7814 51.1374 98.2276C70.5744 101.764 91.0494 88.0236 96.1489 70.6096C96.3194 70.0275 96.9647 69.5844 97.6587 68.8Z" fill="#296CAC"/>
<path d="M81.2252 79.2015C63.5699 97.0109 34.3523 90.3476 27.4679 67.1191C24.0432 55.5638 26.7925 45.3478 34.9913 36.3639C41.4238 29.3154 49.279 26.6587 58.5245 27.0663C63.5685 27.2886 66.8006 30.4735 66.8746 35.4719C66.9398 39.8744 63.1707 43.8308 58.676 44.0779C48.4576 44.6396 41.674 53.0429 44.261 61.9347C47.4586 72.9247 59.8734 75.5712 68.5282 66.7475C71.9792 63.2291 76.0081 63.2728 79.4262 64.5648C83.1172 65.9601 84.6264 70.0328 83.7953 74.1845C83.4609 75.8548 82.2861 77.3567 81.2252 79.2015Z" fill="#DD5828"/>
<path d="M89.3893 28.0832C101.757 27.2763 112.224 30.5241 120.583 39.3549C121.613 40.4431 122.061 42.0829 123.275 44.4258C108.018 40.5212 96.5667 46.6174 85.1267 53.8483C77.55 58.6372 68.8906 59.1458 59.8691 56.4547C64.8734 50.146 69.931 44.0243 74.6951 37.6821C78.3813 32.7747 83.2058 29.8139 89.3893 28.0832Z" fill="#DD5828"/>
<path d="M129.526 52.2313C130.687 53.431 131.576 54.3876 132.829 55.7367C123.357 57.8404 114.654 62.2033 104.989 59.072C100.983 57.7742 96.9899 56.4247 93.0709 54.894C92.7199 54.7569 92.6199 52.4373 92.9739 52.258C104.996 46.168 117.108 44.6439 129.526 52.2313Z" fill="#DD5828"/>
</svg>
