<svg width="64" height="64" viewBox="0 0 64 64" fill="none" xmlns="http://www.w3.org/2000/svg">
<path d="M60.8 9.14286H64V60.9524H60.8V9.14286Z" fill="#fff"/>
<path d="M0 9.14286H3.2V60.9524H0V9.14286Z" fill="#fff"/>
<path d="M0 9.14286C0 7.4597 1.43269 6.09524 3.2 6.09524H11.7333V9.14286H0Z" fill="#fff"/>
<path d="M10.6667 3.04762H13.8667V11.1746H10.6667V3.04762Z" fill="#fff"/>
<path d="M43.7333 3.04762H46.9333V11.1746H43.7333V3.04762Z" fill="#fff"/>
<path d="M17.0667 3.04762H20.2667V11.1746H17.0667V3.04762Z" fill="#fff"/>
<path d="M50.1333 3.04762H53.3333V11.1746H50.1333V3.04762Z" fill="#fff"/>
<path d="M10.6667 3.04762C10.6667 1.36447 12.0994 0 13.8667 0H17.0667C18.834 0 20.2667 1.36447 20.2667 3.04762H10.6667Z" fill="#fff"/>
<path d="M43.7333 3.04762C43.7333 1.36447 45.166 0 46.9333 0H50.1333C51.9006 0 53.3333 1.36447 53.3333 3.04762H43.7333Z" fill="#fff"/>
<path d="M13.8667 14.2222C12.0994 14.2222 10.6667 12.8578 10.6667 11.1746H20.2667C20.2667 12.8578 18.834 14.2222 17.0667 14.2222H13.8667Z" fill="#fff"/>
<path d="M46.9333 14.2222C45.166 14.2222 43.7333 12.8578 43.7333 11.1746H53.3333C53.3333 12.8578 51.9006 14.2222 50.1333 14.2222H46.9333Z" fill="#fff"/>
<path d="M52.2667 9.14286V6.09524H60.8C62.5673 6.09524 64 7.4597 64 9.14286H52.2667Z" fill="#fff"/>
<path d="M17.0667 9.14286V6.09524H46.9333V9.14286H17.0667Z" fill="#fff"/>
<path d="M0 20.3175V17.2698H64V20.3175H0Z" fill="#fff"/>
<path d="M10.6667 28.4444C10.6667 26.7613 12.0994 25.3968 13.8667 25.3968H49.0667C50.834 25.3968 52.2667 26.7613 52.2667 28.4444H10.6667Z" fill="#fff"/>
<path d="M13.8667 55.873C12.0994 55.873 10.6667 54.5086 10.6667 52.8254H52.2667C52.2667 54.5086 50.834 55.873 49.0667 55.873H13.8667Z" fill="#fff"/>
<path d="M49.0667 28.4444H52.2667V52.8254H49.0667V28.4444Z" fill="#fff"/>
<path d="M10.6667 28.4444H13.8667V52.8254H10.6667V28.4444Z" fill="#fff"/>
<path d="M12.8 37.5873V34.5397H50.1333V37.5873H12.8Z" fill="#fff"/>
<path d="M12.8 46.7302V43.6825H50.1333V46.7302H12.8Z" fill="#fff"/>
<path d="M20.2667 28.4444H23.4667V52.8254H20.2667V28.4444Z" fill="#fff"/>
<path d="M29.8667 28.4444H33.0667V52.8254H29.8667V28.4444Z" fill="#fff"/>
<path d="M39.4667 28.4444H42.6667V52.8254H39.4667V28.4444Z" fill="#fff"/>
<path d="M3.2 64C1.43269 64 0 62.6355 0 60.9524H64C64 62.6355 62.5673 64 60.8 64H3.2Z" fill="#fff"/>
</svg>
