<svg width="64" height="64" viewBox="0 0 64 64" fill="none" xmlns="http://www.w3.org/2000/svg">
<path d="M64 18.4611C64 28.657 48.0001 36.9223 45.1765 43.3837C42.353 36.9223 26.3531 28.657 26.3531 18.4611C26.3531 8.26534 34.7806 0 45.1765 0C55.5725 0 64 8.26534 64 18.4611ZM40.0206 18.4611C40.0206 21.2539 42.329 23.5178 45.1765 23.5178C48.0241 23.5178 50.3325 21.2539 50.3325 18.4611C50.3325 15.6684 48.0241 13.4045 45.1765 13.4045C42.329 13.4045 40.0206 15.6684 40.0206 18.4611Z" fill="#fff"/>
<path d="M0.000242764 9.23057H4.70611V57.2296H0.000242764V9.23057Z" fill="#fff"/>
<path d="M17.8825 13.8459H22.5884V61.8448H17.8825V13.8459Z" fill="#fff"/>
<path d="M0 7.38447L22.5884 13.8459L22.5884 18.4611L0.00024278 11.9997L0 7.38447Z" fill="#fff"/>
<path d="M0.000242766 53.5373L22.5888 59.0758L22.5891 63.6911L0.000908659 58.1528L0.000242766 53.5373Z" fill="#fff"/>
<path d="M34.8227 53.5373L60.2344 59.3847L60.2345 64L34.8228 58.1522L34.8227 53.5373Z" fill="#fff"/>
<path d="M55.5294 38.6195L60.2353 34.1531V61.8448H55.5294V38.6195Z" fill="#fff"/>
<path d="M34.8236 38.7684L39.5295 45.2298V58.1526L34.8228 58.1522L34.8236 38.7684Z" fill="#fff"/>
<path d="M22.5888 59.0758L34.8227 53.5373L34.8228 58.1522L22.5891 63.6911L22.5888 59.0758Z" fill="#fff"/>
</svg>
