<svg width="50" height="50" viewBox="0 0 50 50" fill="none" xmlns="http://www.w3.org/2000/svg">
<circle cx="25" cy="25" r="25" fill="#FA4616"/>
<path d="M20.9706 35.5456V35.6918H20.2059V35.3581L20.9706 35.5456ZM19.2059 35.1129V35.814L15.2648 34.8477V34.4611V34.1466L19.2059 35.1129ZM14.2648 33.9611H13.5002L13.5002 33.7139L14.2648 33.9014V33.9611ZM14.2648 32.8718L13.5001 32.6843V18.163L14.2648 18.3817V32.8718ZM14.2648 17.3416L13.5001 17.1229V16.9615H14.2648V17.3416ZM15.2648 17.6277V16.9371L19.2059 18.0644V18.1922V18.7551L15.2648 17.6277ZM20.2059 19.0411V18.6922H20.9706V19.2598L20.2059 19.0411ZM20.9706 20.3V34.516L20.2059 34.3285V20.0812L20.9706 20.3ZM21.9708 35.4759L25.5585 33.8517L25.5585 34.4846L21.9709 36.1089L21.9708 35.4759ZM27.3236 34.3072L26.5586 34.3071L26.5586 33.7046L27.3236 33.8807V34.3072ZM27.3236 32.8545L26.5586 32.6785L26.5588 29.0739L27.3236 30.124V32.8545ZM28.3236 34.8072V34.1108L33.3235 35.2613V35.9658L28.3236 34.8152V34.8072ZM34.3235 35.6918V35.4914L35.0879 35.6673L35.0879 35.6918H34.3235ZM34.3235 27.6971L35.0882 26.9713V34.6412L34.3235 34.4653V27.6971ZM36.5 19.9229C36.5 20.7449 36.1776 21.5589 35.6303 22.3776C35.0824 23.1972 34.3313 23.9885 33.5227 24.7591C33.1413 25.1226 32.7522 25.4768 32.3688 25.8258L32.3034 25.8854C31.9009 26.2518 31.5048 26.6134 31.1424 26.9654C30.6914 27.4036 30.2686 27.8487 29.9412 28.2956C29.6138 27.8487 29.191 27.4036 28.74 26.9654C28.3776 26.6134 27.9816 26.2518 27.5791 25.8854L27.5135 25.8257C27.1302 25.4768 26.7411 25.1226 26.3597 24.7591C25.5511 23.9885 24.8 23.1972 24.2521 22.3776C23.7048 21.5589 23.3824 20.7449 23.3824 19.9229C23.3824 16.3848 26.3097 13.5 29.9412 13.5C33.5727 13.5 36.5 16.3848 36.5 19.9229ZM27.5077 19.9229C27.5077 21.2555 28.6064 22.3192 29.9412 22.3192C31.276 22.3192 32.3747 21.2555 32.3747 19.9229C32.3747 18.5904 31.276 17.5267 29.9412 17.5267C28.6064 17.5267 27.5077 18.5904 27.5077 19.9229Z" fill="#F5F5F5" stroke="#F5F5F5"/>
</svg>
