<svg width="479" height="495" viewBox="0 0 479 495" fill="none" xmlns="http://www.w3.org/2000/svg">
<path d="M328.468 496C327.988 495.667 328.097 495.118 327.946 495.033C318.345 489.63 315.035 479.143 308.576 471.21C302.36 463.574 295.969 456.054 289.248 448.864C281.935 441.042 274.275 433.529 266.535 426.125C260.954 420.786 255.387 415.275 249.075 410.908C244.112 407.474 237.836 406.01 232.468 403.076C218.718 395.56 204.752 388.327 191.611 379.837C176.363 369.985 163.168 357.464 150.739 344.225C137.075 329.669 125.507 313.596 115.604 296.247C106.58 280.437 99.4508 263.876 93.7373 246.611C92.4208 242.632 93.5146 241.557 96.9105 241.003C101.382 240.273 105.853 239.542 109.814 238.895C114.307 249.416 118.994 259.336 122.763 269.593C125.25 276.363 131.26 278.124 136.423 280.965C158.695 293.215 181.812 303.549 205.701 312.378C212.38 314.847 215.756 312.229 220.091 309.343C222.123 307.99 223.869 306.214 225.809 304.715C232.264 299.727 232.537 298.108 228.023 291.121C227.144 289.762 226.002 288.468 225.525 286.971C222.107 276.249 211.795 275.196 203.665 270.843C189.416 263.215 175.399 255.132 161.507 246.867C155.921 243.544 150.92 239.239 145.653 235.382C145.828 234.943 146.003 234.505 146.177 234.066C154.668 233.711 163.168 232.996 171.645 233.209C174.363 233.278 177.05 235.747 179.699 237.213C190.145 242.99 200.571 248.804 211.835 255.067C210.218 246.497 208.828 239.13 207.424 231.687C243.285 231.687 278.438 231.687 313.569 231.687C316.567 250.158 322.608 266.996 329.198 283.689C330.688 287.465 333.156 289.45 336.904 289.924C348.248 291.356 359.597 292.757 370.966 293.972C384.484 295.416 398.003 296.972 411.562 297.884C423.454 298.684 435.402 298.974 447.324 298.925C464.4 298.856 477.188 311.004 474.752 328.548C473.731 335.903 470.395 343.053 467.416 349.997C459.235 369.065 449.987 387.645 437.955 404.599C429.573 416.409 420.598 427.832 411.373 439.004C394.507 459.43 374.112 476.034 352.836 491.604C351.016 492.936 349.067 494.089 347.089 495.663C340.979 496 334.958 496 328.468 496ZM291.858 422.366C291.401 422.304 290.944 422.242 290.487 422.18C290.741 422.657 290.996 423.133 291.688 424.119C307.272 439.655 321.585 456.215 333.049 475.103C335.31 478.828 338.58 479.124 342.12 476.406C349.221 470.954 356.683 465.924 363.424 460.063C374.577 450.366 385.278 440.151 396.169 430.154C395.902 429.661 395.635 429.168 395.368 428.674C391.367 429.116 387.363 429.967 383.367 429.927C366.952 429.764 350.529 429.572 334.13 428.88C327.334 428.594 320.593 427.018 313.825 426.04C306.575 424.992 299.323 423.958 291.858 422.366ZM342.268 319.264C341.246 329.943 333.65 335.386 325.32 341.191C331.547 342.071 337.774 342.952 344.872 343.98C350.544 344.653 356.206 345.435 361.891 345.977C373.15 347.05 384.403 348.403 395.69 348.89C412.251 349.605 428.839 349.702 445.417 349.913C446.586 349.928 448.443 348.987 448.84 348.021C451.414 341.763 453.804 335.419 455.998 329.016C458.381 322.064 454.873 317.243 447.618 316.985C440.197 316.722 432.777 316.392 425.362 315.989C414.018 315.372 402.661 314.894 391.345 313.941C378.639 312.871 365.973 311.33 353.287 310.013C349.647 309.636 346.001 309.325 342.953 309.039C342.953 312.665 342.953 315.779 342.268 319.264ZM432.072 368.019C424.146 367.68 416.221 367.319 408.294 367.007C399.203 366.649 390.107 366.392 381.018 365.974C376.753 365.779 372.484 365.445 368.245 364.939C357.871 363.699 347.512 362.341 337.151 360.996C326.634 359.631 316.134 358.125 305.599 356.923C303.635 356.699 301.179 357.063 299.566 358.107C290.172 364.185 280.943 370.521 271.695 376.823C264.747 381.557 257.854 386.37 250.502 391.448C302.888 410.794 356.254 415.575 412.147 409.895C416.046 404.073 421.079 396.559 426.739 388.742C430.785 381.968 434.83 375.193 439.026 368.167C436.596 368.167 434.797 368.167 432.072 368.019ZM186.709 324.944C173.922 319.977 161.841 313.146 148.036 309.218C149.037 315.477 164.086 333.256 174.957 341.875C181.282 337.267 187.668 332.616 194.589 327.575C191.641 326.505 189.568 325.752 186.709 324.944Z" fill="#323232"/>
<path d="M388.007 84.0334C396.789 97.3631 403.912 111.15 408.94 125.959C414.715 142.971 418.868 160.309 419.046 178.424C419.083 182.185 419.848 185.935 419.956 189.7C420.089 194.331 423.562 196.155 426.893 196.767C436.663 198.56 446.619 199.339 456.393 201.116C462.006 202.136 467.776 203.604 472.802 206.182C477.977 208.837 479.481 214.409 478.834 220.092C478.721 221.084 476.454 222.62 475.238 222.57C467.702 222.259 460.19 221.392 452.655 221.035C436.144 220.253 419.623 219.689 403.109 218.984C397.18 218.731 391.262 218.215 385.332 218.024C372.577 217.612 359.814 217.436 347.062 216.959C339.845 216.69 332.642 216.017 325 215.496C325 206.951 324.802 198.325 325.041 189.712C325.568 170.709 309.303 154.386 290.139 154.966C273.721 155.463 257.282 155.394 240.874 156.082C226.249 156.696 211.632 157.773 197.05 159.068C181.405 160.457 165.722 161.801 150.212 164.184C138.913 165.919 127.123 165.718 116.531 171.134C103.898 177.594 96.655 193.544 99.7084 207.531C100.843 212.728 101.006 218.138 101.634 223.641C91.7225 225.727 81.5548 227.656 71.4952 230.042C60.6532 232.613 49.8284 235.329 39.1522 238.506C29.4217 241.402 19.9166 245.049 10.2808 248.272C4.09807 250.339 1.00937 248.139 1.00516 241.781C0.990263 219.285 0.269995 196.756 1.29093 174.306C1.84627 162.095 4.6953 149.847 7.71348 137.92C12.9989 117.034 22.3539 97.8829 34.943 80.3476C45.4447 65.7199 57.1476 52.1582 71.9043 41.7089C82.999 33.8527 94.1947 25.8928 106.212 19.6451C122.754 11.0448 140.629 5.81085 159.18 2.93478C182.638 -0.702108 206.212 1.83512 229.715 0.990907C252.709 0.164987 274.92 4.21301 296.432 12.0496C316.397 19.3226 334.635 29.7223 350.959 43.4284C365.04 55.2505 377.337 68.6786 388.007 84.0334Z" fill="#323232"/>
<path d="M216 215C182.918 214.761 150.55 217.707 117.708 221.609C117.171 218.504 116.524 215.398 116.12 212.261C115.638 208.527 115.397 204.763 114.992 201.019C114.133 193.068 120.89 184.17 130.765 183.01C145.195 181.316 159.612 179.479 174.069 178.045C189.731 176.491 205.416 175.074 221.121 174.072C236.769 173.074 252.455 172.673 268.124 171.995C275.376 171.681 282.625 171.137 289.88 171.043C301.679 170.89 309.001 178.385 308.999 190.265C308.999 198.257 308.994 206.249 308.986 214.24C308.986 214.571 308.93 214.903 308.921 215C278.098 215 247.299 215 216 215Z" fill="#323232"/>
<path d="M291.465 423.448C290.996 423.133 290.741 422.657 290.487 422.18C290.944 422.242 291.401 422.304 291.965 422.642C291.941 423.04 291.81 423.163 291.465 423.448Z" fill="white"/>
</svg>
