<svg width="64" height="64" viewBox="0 0 64 64" fill="none" xmlns="http://www.w3.org/2000/svg">
<path d="M64 32C64 49.6731 49.6731 64 32 64C14.3269 64 0 49.6731 0 32C0 14.3269 14.3269 0 32 0C49.6731 0 64 14.3269 64 32ZM7.75905 32C7.75905 45.3879 18.6121 56.2409 32 56.2409C45.3879 56.2409 56.2409 45.3879 56.2409 32C56.2409 18.6121 45.3879 7.75905 32 7.75905C18.6121 7.75905 7.75905 18.6121 7.75905 32Z" fill="white"/>
<path d="M41.1429 18.2857C39.9422 18.2857 38.7533 18.5222 37.644 18.9817C36.5348 19.4411 35.5269 20.1146 34.6779 20.9636C33.8289 21.8126 33.1554 22.8205 32.696 23.9298C32.2365 25.039 32 26.2279 32 27.4286H35.7533C35.7533 26.7208 35.8927 26.02 36.1635 25.3661C36.4344 24.7122 36.8314 24.118 37.3318 23.6176C37.8323 23.1171 38.4265 22.7201 39.0804 22.4492C39.7342 22.1784 40.4351 22.039 41.1429 22.039V18.2857Z" fill="white"/>
<path d="M27.4286 22.8571H36.5714V57.1429H27.4286V22.8571Z" fill="white"/>
<path d="M20.5714 38.8571V32H43.4286V38.8571H20.5714Z" fill="white"/>
<path d="M27.4286 22.8571C27.4286 19.07 30.4986 16 34.2857 16H43.4286V22.8571H27.4286Z" fill="white"/>
</svg>
