<svg width="64" height="64" viewBox="0 0 64 64" fill="none" xmlns="http://www.w3.org/2000/svg">
<path d="M0 18.6667C0 14.2484 3.58172 10.6667 8 10.6667V53.3333C3.58172 53.3333 0 49.7516 0 45.3333V18.6667Z" fill="white"/>
<path d="M10.6667 8C10.6667 3.58172 14.2484 0 18.6667 0H45.3333C49.7516 0 53.3333 3.58172 53.3333 8H10.6667Z" fill="white"/>
<path d="M56 10.6667C60.4183 10.6667 64 14.2484 64 18.6667V45.3333C64 49.7516 60.4183 53.3333 56 53.3333V10.6667Z" fill="white"/>
<path d="M18.6667 64C14.2484 64 10.6667 60.4183 10.6667 56H53.3333C53.3333 60.4183 49.7516 64 45.3333 64H18.6667Z" fill="white"/>
<path d="M48 32C48 40.8366 40.8366 48 32 48C23.1634 48 16 40.8366 16 32C16 23.1634 23.1634 16 32 16C40.8366 16 48 23.1634 48 32ZM23.9024 32C23.9024 36.4722 27.5278 40.0976 32 40.0976C36.4722 40.0976 40.0976 36.4722 40.0976 32C40.0976 27.5278 36.4722 23.9024 32 23.9024C27.5278 23.9024 23.9024 27.5278 23.9024 32Z" fill="white"/>
<path d="M64 18.6667C64 16.2153 63.5172 13.788 62.5791 11.5232C61.641 9.2585 60.266 7.2007 58.5327 5.46734C56.7993 3.73398 54.7415 2.359 52.4768 1.42092C50.212 0.482827 47.7847 -1.07151e-07 45.3333 0V7.98933C46.7355 7.98933 48.1239 8.26551 49.4194 8.8021C50.7148 9.33868 51.8919 10.1252 52.8833 11.1167C53.8748 12.1081 54.6613 13.2852 55.1979 14.5806C55.7345 15.8761 56.0107 17.2645 56.0107 18.6667H64Z" fill="white"/>
<path d="M18.6667 0C16.2153 0 13.788 0.482828 11.5232 1.42092C9.2585 2.359 7.2007 3.73398 5.46734 5.46734C3.73398 7.2007 2.359 9.2585 1.42092 11.5232C0.482827 13.788 -1.07152e-07 16.2153 0 18.6667H7.98925C7.98925 17.2645 8.26542 15.876 8.80202 14.5806C9.33861 13.2852 10.1251 12.1081 11.1166 11.1166C12.1081 10.1251 13.2852 9.33861 14.5806 8.80202C15.876 8.26542 17.2645 7.98925 18.6667 7.98925V0Z" fill="white"/>
<path d="M0 45.3333C0 47.7847 0.482828 50.212 1.42092 52.4768C2.359 54.7415 3.73398 56.7993 5.46734 58.5327C7.2007 60.266 9.2585 61.641 11.5232 62.5791C13.788 63.5172 16.2153 64 18.6667 64V56.0232C17.2628 56.0232 15.8728 55.7467 14.5758 55.2095C13.2789 54.6723 12.1004 53.8849 11.1078 52.8922C10.1151 51.8996 9.3277 50.7211 8.79048 49.4242C8.25327 48.1272 7.97676 46.7372 7.97676 45.3333H0Z" fill="white"/>
<path d="M45.3333 64C47.7847 64 50.212 63.5172 52.4768 62.5791C54.7415 61.641 56.7993 60.266 58.5327 58.5327C60.266 56.7993 61.641 54.7415 62.5791 52.4768C63.5172 50.212 64 47.7847 64 45.3333H56.0524C56.0524 46.741 55.7752 48.1348 55.2365 49.4353C54.6978 50.7358 53.9082 51.9175 52.9129 52.9129C51.9175 53.9082 50.7358 54.6978 49.4353 55.2365C48.1348 55.7752 46.741 56.0524 45.3333 56.0524V64Z" fill="white"/>
<path d="M53.3333 14.6667C53.3333 16.8758 51.5425 18.6667 49.3333 18.6667C47.1242 18.6667 45.3333 16.8758 45.3333 14.6667C45.3333 12.4575 47.1242 10.6667 49.3333 10.6667C51.5425 10.6667 53.3333 12.4575 53.3333 14.6667Z" fill="white"/>
</svg>
