<svg width="78" height="64" viewBox="0 0 78 64" fill="none" xmlns="http://www.w3.org/2000/svg">
<path d="M77.8202 9.88079C77.366 10.44 76.8714 10.8957 76.4645 11.4193C74.8396 13.5102 73.0007 15.377 70.9046 17.0011C70.6139 17.2264 70.3768 17.7164 70.3726 18.0867C70.3196 22.8593 69.6298 27.5185 68.2436 32.0969C66.598 37.5323 64.0476 42.4956 60.594 46.9683C59.0278 48.9966 57.2585 50.9016 55.3835 52.6505C52.1662 55.6513 48.5084 58.0566 44.5066 59.9137C41.3223 61.3914 37.9966 62.4601 34.5626 63.1482C32.8685 63.4876 31.1327 63.6862 29.4065 63.7829C26.9327 63.9215 24.4321 64.1198 21.9766 63.9057C19.052 63.6507 16.1036 63.2052 13.2751 62.4382C10.4318 61.6673 7.67749 60.5036 4.97212 59.3124C3.26842 58.5621 1.72638 57.4448 0.0559117 56.4909C0 55.8632 0 55.2368 0 54.5384C0.881678 53.8406 1.82338 53.8561 2.87804 53.9593C4.44505 54.1128 6.04866 54.1133 7.61813 53.9723C10.4055 53.7219 13.1357 53.1248 15.7316 52.0386C17.0551 51.4848 18.3499 50.8621 19.6576 50.2706C19.6504 50.1906 19.6433 50.1105 19.6361 50.0305C19.4726 49.9502 19.3155 49.8517 19.1447 49.7925C16.4214 48.8493 14.0264 47.375 12.0609 45.2664C10.432 43.5188 9.19553 41.5003 8.42954 39.2323C7.99502 37.9457 8.59037 37.1068 9.91113 36.7784C6.53253 34.2741 4.33328 30.9797 3.37628 26.9178C3.06283 25.5874 3.02554 24.1795 2.97823 22.803C2.94333 21.7878 4.15685 21.1404 5.22861 21.5148C5.43219 21.5859 5.62342 21.6923 6.05316 21.889C5.72127 21.222 5.52338 20.7469 5.26126 20.3104C3.83922 17.9421 3.17406 15.3888 3.08817 12.6215C3.00128 9.82204 3.56606 7.19489 4.74918 4.69283C5.04586 4.06541 5.47742 3.41523 6.02219 3.0125C6.78767 2.44663 7.68315 2.98909 8.55671 3.94255C10.1293 5.65901 11.731 7.37702 13.5101 8.86829C15.314 10.3804 17.2951 11.7015 19.2918 12.9584C22.4674 14.9575 25.9331 16.3405 29.568 17.2514C31.5819 17.7561 33.6374 18.0959 35.6761 18.4995C35.8753 18.539 36.089 18.5048 36.4352 18.5048C36.3759 18.0393 36.2362 17.5947 36.2799 17.1691C36.4334 15.6761 36.5297 14.1618 36.8667 12.7064C37.6771 9.20754 39.5988 6.33441 42.302 4.02017C44.5574 2.08926 47.1866 0.851922 50.124 0.302896C53.9531 -0.412793 57.5942 0.130517 60.9884 2.03172C62.1792 2.69871 63.2406 3.59405 64.3826 4.3528C64.6325 4.51884 65.0118 4.68653 65.2675 4.61725C67.9403 3.89313 70.5533 3.01755 72.959 1.59021C73.4261 1.31312 74.0876 1.23037 74.6448 1.26899C75.5471 1.33155 76.094 2.43304 75.6836 3.43224C75.175 4.67048 74.5321 5.85371 73.9422 7.05823C73.8442 7.25833 73.7205 7.44583 73.4784 7.86431C74.2504 7.69325 74.8465 7.63437 75.3844 7.42555C76.2943 7.07238 77.0554 7.22226 77.7823 7.82761C77.8202 8.45225 77.8202 9.13036 77.8202 9.88079ZM14.3195 13.6116C11.9664 11.6213 9.61333 9.63095 7.24275 7.62586C6.10579 10.5253 6.06552 13.4395 6.99893 16.3901C7.92859 19.3289 9.72268 21.6113 12.2237 23.3693C12.9666 23.8915 13.3009 24.8097 13.0401 25.608C12.8422 26.2137 12.1022 26.6828 11.2183 26.5891C10.161 26.4771 9.11764 26.2338 8.06805 26.0483C7.62286 25.9697 7.1772 25.8936 6.64938 25.8021C7.22431 28.352 8.23291 30.4969 9.84695 32.3116C11.7947 34.5015 14.1651 36.0087 17.0898 36.5942C17.7674 36.7298 18.3424 37.1116 18.3799 37.992C18.4268 39.0908 18.1974 39.4605 17.1646 39.8268C16.6932 39.994 16.1843 40.0724 15.6855 40.1416C14.7674 40.269 13.8442 40.3599 12.9226 40.4661C12.9334 40.6632 12.9093 40.7584 12.9458 40.8133C15.5285 44.7013 18.94 47.2447 23.776 47.4611C24.8036 47.5071 25.6245 47.982 25.8145 48.6642C26.0487 49.5048 25.7542 50.0494 24.8042 50.7795C22.8588 52.2744 20.7673 53.5053 18.5121 54.4741C15.5059 55.7657 12.3941 56.6344 9.13443 56.9646C8.93068 56.9852 8.73819 57.1169 8.54046 57.197C8.54483 57.2838 8.54921 57.3705 8.55359 57.4573C10.7402 58.1695 12.8948 59.01 15.1206 59.5644C18.6883 60.453 22.3258 60.8261 26.0236 60.7204C28.3633 60.6535 30.675 60.466 32.9771 60.0727C37.1846 59.3537 41.1623 57.9825 44.937 55.9839C50.0826 53.2595 54.412 49.5596 57.9447 44.9669C60.8713 41.1622 63.1322 36.9711 64.6657 32.3948C65.7029 29.2997 66.4957 26.1637 66.7745 22.9053C66.8551 21.9641 67.0249 21.0285 67.0655 20.0865C67.1078 19.1062 67.1198 18.1118 67.0003 17.1414C66.9118 16.4227 67.1113 15.8795 67.6063 15.4526C68.7077 14.5025 69.854 13.6046 70.966 12.6663C71.1287 12.529 71.2033 12.2872 71.3917 11.9714C70.1704 12.305 69.1451 12.6753 68.0875 12.8498C66.922 13.0421 66.2806 13.0337 65.8282 11.9694C65.4973 11.1912 65.7029 10.4189 66.4574 9.88485C67.0364 9.47509 67.672 9.13716 68.2134 8.6847C68.8237 8.1747 69.3566 7.57217 69.9232 7.00989C69.8685 6.94139 69.8138 6.87289 69.7591 6.80439C69.5154 6.85762 69.2677 6.89728 69.0286 6.96645C68.0073 7.26188 66.9921 7.57903 65.9679 7.86362C64.7533 8.2011 63.622 8.29493 62.7144 7.1024C62.3249 6.59067 61.7203 6.22818 61.177 5.8504C58.1363 3.73625 54.7672 2.84385 51.1051 3.4424C47.5074 4.03042 44.5668 5.82688 42.3696 8.75627C39.8615 12.1003 39.017 15.8295 39.9343 19.925C40.2179 21.1913 39.5278 22.1668 38.218 22.0732C36.4389 21.9462 34.6654 21.7119 32.8974 21.4666C28.9443 20.9182 25.1765 19.6968 21.6279 17.9198C19.1376 16.6728 16.8045 15.1118 14.3195 13.6116Z" fill="white"/>
</svg>
