<svg width="76" height="64" viewBox="0 0 76 64" fill="none" xmlns="http://www.w3.org/2000/svg">
<path d="M52.3635 32L30.5454 44.5967V19.4033L52.3635 32Z" fill="white"/>
<path d="M66.9089 46.5455V17.4545H75.6362V46.5455H66.9089Z" fill="white"/>
<path d="M0 46.5455V17.4545H8.72727V46.5455H0Z" fill="white"/>
<path d="M75.6362 17.4545C75.6362 15.1624 75.1848 12.8927 74.3076 10.775C73.4304 8.6573 72.1447 6.73312 70.5239 5.11232C68.9031 3.49151 66.9789 2.20582 64.8613 1.32865C62.7436 0.451475 60.4738 -1.00193e-07 58.1817 0V8.71144C59.3298 8.71144 60.4668 8.93759 61.5275 9.37697C62.5883 9.81635 63.5521 10.4604 64.364 11.2722C65.1759 12.0841 65.8199 13.0479 66.2593 14.1087C66.6986 15.1695 66.9248 16.3064 66.9248 17.4545L75.6362 17.4545Z" fill="white"/>
<path d="M58.1818 64C60.474 64 62.7437 63.5485 64.8614 62.6714C66.9791 61.7942 68.9032 60.5085 70.524 58.8877C72.1448 57.2669 73.4305 55.3427 74.3077 53.225C75.1849 51.1073 75.6362 48.8376 75.6362 46.5455L66.923 46.5455C66.923 47.6934 66.697 48.83 66.2577 49.8906C65.8184 50.9511 65.1745 51.9147 64.3628 52.7264C63.5511 53.5381 62.5875 54.182 61.5269 54.6213C60.4664 55.0606 59.3297 55.2867 58.1818 55.2867V64Z" fill="white"/>
<path d="M0 46.5455C0 48.8376 0.451611 51.1073 1.32878 53.225C2.20596 55.3427 3.49165 57.2669 5.11245 58.8877C6.73326 60.5085 8.65743 61.7942 10.7751 62.6713C12.8928 63.5485 15.1625 64 17.4547 64V55.2867C16.3068 55.2867 15.1701 55.0606 14.1096 54.6213C13.049 54.182 12.0854 53.5381 11.2737 52.7264C10.462 51.9147 9.81812 50.9511 9.37883 49.8906C8.93954 48.83 8.71344 47.6934 8.71344 46.5454L0 46.5455Z" fill="white"/>
<path d="M17.4545 5.89544e-06C15.1624 5.89544e-06 12.8927 0.451481 10.775 1.32865C8.6573 2.20583 6.73312 3.49152 5.11232 5.11232C3.49151 6.73313 2.20582 8.6573 1.32865 10.775C0.451475 12.8927 -1.00194e-07 15.1624 0 17.4545L8.71331 17.4546C8.71331 16.3066 8.93941 15.17 9.37869 14.1094C9.81798 13.0489 10.4619 12.0853 11.2736 11.2736C12.0853 10.4619 13.0489 9.81799 14.1094 9.3787C15.17 8.93941 16.3066 8.71331 17.4545 8.71331V5.89544e-06Z" fill="white"/>
<path d="M17.4543 55.2727H58.1816L58.1818 64L17.4547 64L17.4543 55.2727Z" fill="white"/>
<path d="M17.4545 5.89544e-06L58.1817 0L58.1816 8.72727H17.4543L17.4545 5.89544e-06Z" fill="white"/>
</svg>
