<svg width="203" height="349" viewBox="0 0 203 349" fill="none" xmlns="http://www.w3.org/2000/svg">
<path d="M198.531 0C204.51 6.75846 202.278 14.6445 202.276 22.2246C202.26 108.334 202.236 194.443 202.358 280.553C202.364 284.684 201.21 287.121 197.642 289.354C167.187 308.409 136.802 327.578 106.565 346.977C102.457 349.613 99.6966 349.629 95.5929 346.991C66.2287 328.115 36.687 309.515 7.17529 290.869C5.08176 289.546 2.77764 288.557 0.285721 287.706C-5.96046e-08 192.086 0 96.1726 0 0C66.0207 0 132.042 0 198.531 0ZM5.90989 205.5C5.91018 229.493 5.83926 253.487 6.03702 277.479C6.05406 279.546 7.28221 282.463 8.90465 283.529C38.273 302.816 67.8198 321.832 97.2256 341.063C100.266 343.052 102.355 342.751 105.211 340.873C133.738 322.117 162.312 303.434 190.979 284.892C194.442 282.652 195.822 280.24 195.816 276.046C195.692 191.237 195.724 106.427 195.721 21.6176C195.721 15.0618 195.707 15.0525 189.284 15.0522C130.3 15.0497 71.3169 15.0508 12.3334 15.0508C10.3884 15.0508 8.44336 15.0508 5.90989 15.0508C5.90989 78.6334 5.90989 141.567 5.90989 205.5Z" fill="#CD2128"/>
<path d="M5.90989 205C5.90989 141.567 5.90989 78.6334 5.90989 15.0508C8.44336 15.0508 10.3884 15.0508 12.3334 15.0508C71.3169 15.0508 130.3 15.0497 189.284 15.0522C195.707 15.0525 195.721 15.0618 195.721 21.6176C195.724 106.427 195.692 191.237 195.816 276.046C195.822 280.24 194.442 282.652 190.979 284.892C162.312 303.434 133.738 322.117 105.211 340.873C102.355 342.751 100.266 343.052 97.2256 341.063C67.8198 321.832 38.273 302.816 8.90465 283.529C7.28221 282.463 6.05406 279.546 6.03702 277.479C5.83926 253.487 5.91018 229.493 5.90989 205ZM189.67 110.501C189.669 82.848 189.57 55.1947 189.764 27.5435C189.797 22.7581 188.841 20.9404 183.51 20.9603C128.205 21.1671 72.8997 21.0851 17.5945 21.0986C15.8317 21.099 14.0689 21.2622 11.9471 21.3673C11.9471 23.5604 11.9471 25.2078 11.9471 26.8551C11.9471 109.147 11.9743 191.438 11.8578 273.73C11.8526 277.395 13.122 279.373 16.084 281.278C43.1114 298.656 70.0849 316.119 96.9574 333.736C100.135 335.819 102.282 335.629 105.342 333.608C131.739 316.172 158.195 298.824 184.783 281.682C188.491 279.292 189.773 276.749 189.761 272.419C189.62 218.78 189.67 165.14 189.67 110.501Z" fill="#F5C079"/>
<path d="M189.67 111.001C189.67 165.14 189.62 218.78 189.761 272.419C189.773 276.749 188.491 279.292 184.783 281.682C158.195 298.824 131.739 316.172 105.342 333.608C102.282 335.629 100.135 335.819 96.9574 333.736C70.0849 316.119 43.1114 298.656 16.084 281.278C13.122 279.373 11.8526 277.395 11.8578 273.73C11.9743 191.438 11.9471 109.147 11.9471 26.8551C11.9471 25.2078 11.9471 23.5604 11.9471 21.3673C14.0689 21.2622 15.8317 21.099 17.5945 21.0986C72.8997 21.0851 128.205 21.1671 183.51 20.9603C188.841 20.9404 189.797 22.7581 189.764 27.5435C189.57 55.1947 189.669 82.848 189.67 111.001ZM182.993 228.536C179.853 223.648 176.807 218.697 173.545 213.891C170.771 209.805 169.241 209.851 166.636 213.798C163.527 218.508 160.562 223.317 157.332 227.942C155.132 231.092 155.103 234.039 157.181 237.158C160.312 241.855 163.339 246.622 166.557 251.257C169.236 255.115 171.073 255.122 173.665 251.288C176.825 246.614 180.141 241.99 182.703 236.993C183.81 234.834 183.198 231.794 182.993 228.536ZM167.737 194.509C170.047 197.374 171.76 195.845 173.177 193.646C176.599 188.335 180.15 183.083 183.148 177.537C184.078 175.816 184.216 172.783 183.31 171.113C180.307 165.574 176.77 160.31 173.225 155.084C171.144 152.015 168.892 151.85 166.711 155.316C163.612 160.242 160.379 165.088 157.064 169.872C154.981 172.879 155.048 175.652 157.081 178.622C160.557 183.7 163.925 188.852 167.737 194.509ZM163.993 37.4778C161.759 40.7772 159.527 44.078 157.29 47.3755C155.361 50.2179 154.769 53.1114 156.825 56.1791C160.338 61.4201 163.827 66.6772 167.316 71.9347C169.079 74.5923 170.86 74.7185 172.646 71.9846C176.185 66.5642 180.01 61.2948 183.062 55.6113C184.083 53.7103 183.916 50.3235 182.892 48.3373C180.241 43.1945 176.917 38.3816 173.659 33.5743C171.043 29.7152 169.219 29.7703 166.479 33.4846C165.693 34.5494 165.076 35.7383 163.993 37.4778ZM154.618 278.137C156.512 275.207 158.3 272.199 160.329 269.365C162.765 265.96 162.895 262.818 160.363 259.337C158.123 256.258 156.294 252.88 154.294 249.628C148.557 240.301 148.017 240.224 142.024 249.508C130.601 267.207 130.415 261.106 142.002 278.96C148.208 288.522 148.502 288.457 154.618 278.137ZM161.716 80.7774C158.233 75.3284 154.773 69.8646 151.259 64.4358C149.191 61.2399 147.074 60.923 144.86 64.3902C141.646 69.4238 138.018 74.2297 135.249 79.492C134.138 81.6038 133.848 85.1892 134.904 87.1997C137.822 92.7525 141.605 97.8574 145.131 103.082C147.066 105.948 149.147 105.682 150.984 102.943C154.401 97.8442 157.935 92.8085 161.032 87.5196C162.001 85.865 161.724 83.4807 161.716 80.7774ZM129.203 127.697C131.708 123.78 134.118 119.797 136.75 115.968C138.725 113.095 138.539 110.449 136.721 107.654C133.462 102.645 130.234 97.6144 127.046 92.5591C124.931 89.2051 122.87 89.1 120.707 92.4783C117.304 97.7924 113.663 102.974 110.618 108.485C109.66 110.22 109.424 113.323 110.349 114.954C113.617 120.718 117.47 126.157 121.23 131.631C122.873 134.022 124.81 133.69 126.512 131.549C127.336 130.511 128.046 129.381 129.203 127.697ZM101.943 184.125C100.938 184.506 99.4945 184.586 98.9977 185.314C95.159 190.934 91.4162 196.626 87.8653 202.432C87.1635 203.579 86.8824 205.498 87.3181 206.743C90.1939 214.957 95.7087 221.481 101.479 229.585C106.574 221.433 111.028 214.508 115.192 207.413C115.768 206.431 115.341 204.341 114.645 203.218C110.718 196.881 106.568 190.683 101.943 184.125ZM45.4424 238.835C48.5118 234.898 48.4073 230.983 45.6466 226.872C42.7727 222.592 40.1597 218.138 37.3589 213.808C34.8606 209.945 33.3013 209.814 30.7322 213.503C27.3099 218.416 23.7227 223.29 21.0224 228.596C19.8936 230.814 19.9315 234.571 21.0627 236.806C23.752 242.12 27.3897 246.957 30.684 251.961C32.6879 255.004 34.8787 255.047 36.9012 252.029C39.6799 247.883 42.3288 243.649 45.4424 238.835ZM19.9119 171.587C20.0422 173.658 19.4907 176.127 20.4261 177.728C23.6969 183.325 27.4514 188.641 31.0817 194.024C33.0996 197.016 35.053 196.5 36.8292 193.724C40.0591 188.677 43.7389 183.845 46.313 178.483C47.4685 176.075 47.3235 172.179 46.1659 169.709C43.8548 164.779 40.5254 160.308 37.451 155.76C34.6423 151.604 33.0049 151.64 30.1029 155.898C26.7295 160.848 23.521 165.91 19.9119 171.587ZM74.1245 155.667C71.1431 160.26 68.2296 164.9 65.1559 169.431C63.2058 172.306 62.5205 175.146 64.5449 178.211C68.0212 183.474 71.5088 188.731 75.0317 193.963C76.9871 196.867 78.9467 196.649 80.7701 193.803C84.0819 188.632 87.6895 183.614 90.5217 178.192C91.5732 176.179 91.6896 172.752 90.676 170.763C87.9012 165.318 84.3723 160.247 80.997 155.123C78.9873 152.072 76.6906 151.548 74.1245 155.667ZM158.003 117.479C161.856 123.154 165.708 128.829 170.409 135.753C175.485 127.524 179.918 120.766 183.787 113.699C184.563 112.283 183.685 109.408 182.712 107.692C179.765 102.499 176.359 97.5676 173.204 92.4894C170.984 88.9154 168.989 89.3686 166.923 92.6089C164.065 97.0911 161.35 101.684 158.203 105.957C155.5 109.628 154.808 113.067 158.003 117.479ZM110.491 229.12C110.659 231.736 110.029 234.778 111.153 236.883C113.883 241.993 117.385 246.697 120.658 251.508C123.209 255.257 124.628 255.311 127.273 251.48C130.482 246.831 133.301 241.912 136.538 237.283C138.651 234.26 138.607 231.482 136.732 228.505C133.632 223.584 130.65 218.586 127.427 213.748C124.792 209.792 123.22 209.837 120.446 213.899C117.166 218.702 114.078 223.637 110.491 229.12ZM67.5894 224.113C65.1645 228.156 61.3057 231.895 64.8391 237.195C68.0672 242.037 71.2963 246.879 74.5047 251.734C76.6296 254.949 78.8571 255.184 81.02 251.866C84.1966 246.993 87.6111 242.223 90.2071 237.049C91.3023 234.867 91.5328 231.291 90.4843 229.178C87.692 223.55 84.0203 218.355 80.6412 213.025C78.7283 210.007 76.6207 210.429 74.7989 213.064C72.4368 216.481 70.2538 220.022 67.5894 224.113ZM68.5986 280.094C67.0103 282.427 64.9273 284.577 63.9828 287.146C63.1571 289.392 62.649 292.637 63.6811 294.519C66.8625 300.32 70.8318 305.691 74.5293 311.206C76.2131 313.717 77.9635 313.526 79.5485 311.106C83.1861 305.554 86.9759 300.085 90.2654 294.331C91.1458 292.792 91.1879 289.944 90.3406 288.393C87.2453 282.728 83.6566 277.327 80.164 271.884C78.103 268.673 75.8291 269.277 73.874 271.978C72.1251 274.394 70.6148 276.982 68.5986 280.094ZM41.454 79.1894C41.5536 82.3155 40.7066 85.9013 41.954 88.47C44.4005 93.5082 48.0435 97.9604 51.1336 102.693C53.3188 106.04 55.4033 105.995 57.531 102.68C60.8523 97.5041 64.3759 92.4422 67.3781 87.0879C68.2783 85.4824 68.5304 82.6283 67.6992 81.0943C64.5387 75.2619 60.9056 69.6752 57.2625 64.1191C55.2833 61.1006 53.0884 61.2432 51.104 64.3467C48.0602 69.1071 44.9547 73.828 41.454 79.1894ZM87.2636 265.183C91.067 271.593 94.7917 278.052 98.7116 284.39C100.338 287.02 102.334 286.392 103.822 284.138C107.488 278.584 111.241 273.07 114.513 267.287C115.399 265.72 115.452 262.833 114.586 261.275C111.359 255.47 107.738 249.861 103.879 244.453C103.237 243.554 99.5728 243.331 99.1696 243.971C94.9604 250.649 91.1322 257.567 87.2636 265.183ZM18.0822 115.206C21.5257 120.491 24.9359 125.799 28.4257 131.053C30.3767 133.991 32.6465 134.264 34.6841 131.213C38.0025 126.245 41.4481 121.32 44.2249 116.053C45.3067 114.001 45.705 110.562 44.7095 108.636C41.8273 103.061 38.167 97.8739 34.6347 92.6548C32.8756 90.0558 30.4687 89.7006 28.5766 92.4685C24.9248 97.8107 21.3435 103.22 18.1223 108.825C17.2689 110.31 17.8336 112.61 18.0822 115.206ZM161.784 208.289C161.465 205.952 161.775 203.266 160.707 201.345C157.886 196.271 154.402 191.569 151.309 186.64C149.205 183.287 147.257 183.002 145.024 186.463C141.688 191.635 137.889 196.565 135.13 202.024C134.027 204.207 134.301 207.966 135.46 210.234C138.019 215.239 141.571 219.732 144.655 224.474C146.98 228.05 149.348 227.869 151.558 224.519C154.946 219.383 158.175 214.142 161.784 208.289ZM121.339 310.97C123.134 313.686 124.935 313.637 126.674 310.936C130.004 305.762 133.651 300.748 136.454 295.3C137.578 293.117 137.778 289.503 136.732 287.347C134.21 282.144 130.865 277.307 127.548 272.533C124.851 268.652 123.003 268.719 120.358 272.538C117.046 277.321 113.513 282.031 110.928 287.2C109.832 289.39 110.011 293.134 111.173 295.354C113.934 300.631 117.627 305.421 121.339 310.97ZM159.505 152.001C160.205 150.871 160.771 149.626 161.626 148.629C165.524 144.084 165.139 139.788 161.543 135.167C158.696 131.508 156.391 127.428 153.806 123.562C151.193 119.655 149.477 119.544 146.761 123.475C143.551 128.12 140.111 132.728 137.793 137.818C136.625 140.381 136.742 144.449 137.99 146.999C140.525 152.18 144.254 156.772 147.43 161.646C149.62 165.005 151.509 164.332 153.4 161.387C155.285 158.45 157.225 155.548 159.505 152.001ZM112.076 131.424C110.276 128.633 108.503 125.824 106.667 123.058C104.504 119.8 102.18 119.877 100.062 123.032C97.0078 127.58 94.1773 132.28 91.0992 136.812C88.7654 140.248 88.656 143.549 90.9293 147.008C94.1219 151.864 97.2861 156.74 100.427 161.63C102.575 164.974 104.476 164.364 106.395 161.406C108.745 157.783 110.902 153.993 113.609 150.653C118.307 144.858 118.298 139.325 113.658 133.634C113.239 133.121 112.889 132.551 112.076 131.424ZM68.9937 101.477C67.6229 103.561 65.66 105.485 65.0378 107.772C64.3289 110.379 63.8472 113.81 64.9761 116.002C67.6997 121.292 71.4017 126.081 74.7434 131.048C76.8324 134.154 79.0203 133.902 80.9571 130.953C84.3336 125.812 87.8825 120.747 90.7469 115.327C91.7371 113.453 91.7388 110.177 90.7495 108.303C87.81 102.734 84.163 97.5378 80.7731 92.2081C78.6424 88.8583 76.6139 89.5342 74.731 92.4446C72.9248 95.2364 71.164 98.0575 68.9937 101.477ZM130.871 38.6313C124.583 28.1345 123.642 28.1196 117.073 38.4116C116.984 38.5518 116.914 38.7121 116.8 38.8281C107.748 48.0169 109.327 56.4346 117.065 66.0755C125.166 76.1677 123.634 77.0451 130.892 65.5371C140.526 50.2629 140.049 53.5361 130.871 38.6313ZM71.3838 37.8603C69.1961 41.1868 66.6307 44.3368 64.9627 47.9061C63.9652 50.0404 63.3609 53.3628 64.3396 55.2276C67.2551 60.7832 71.0037 65.9068 74.4999 71.1504C76.5225 74.1837 78.7503 74.0116 80.8032 71.1719C82.5517 68.7533 83.9414 66.0461 85.871 63.7931C92.3738 56.2005 93.6012 48.7115 86.1496 40.974C85.1385 39.9241 84.5847 38.4417 83.7783 37.1857C78.0708 28.2967 77.0595 28.3038 71.3838 37.8603ZM62.6063 217.103C64.1886 214.565 66.2566 212.194 67.2009 209.438C67.9713 207.189 68.257 204.047 67.2541 202.06C64.6466 196.894 61.3552 192.047 58.0616 187.262C55.3833 183.371 53.0885 183.533 50.4148 187.514C47.4502 191.927 44.1917 196.213 41.8469 200.943C40.6805 203.297 40.1705 207.086 41.2789 209.241C44.2259 214.969 48.1372 220.215 51.8192 225.546C53.6332 228.172 55.6252 227.815 57.3125 225.231C58.9481 222.727 60.5747 220.216 62.6063 217.103ZM53.3932 161.043C55.6792 164.339 57.9748 163.962 60.0023 160.879C63.193 156.027 66.6541 151.281 69.1616 146.085C70.2627 143.803 70.1945 140.095 69.0881 137.787C66.6667 132.735 63.3636 128.081 60.1906 123.422C57.6012 119.619 55.4388 119.644 52.9583 123.314C49.8914 127.851 47.0233 132.523 43.9576 137.061C41.6034 140.546 41.7918 143.823 44.1322 147.217C47.1469 151.59 50.041 156.047 53.3932 161.043ZM32.1752 30.7403C31.0536 31.2942 29.4921 31.5502 28.8823 32.4507C25.1631 37.9429 21.3768 43.4299 18.2564 49.2628C17.31 51.0319 17.6682 54.2984 18.7044 56.1746C21.5033 61.2425 24.9949 65.9272 28.1989 70.7723C30.5206 74.2832 32.8868 74.1303 35.1051 70.753C38.384 65.7611 41.7193 60.7916 44.6681 55.6064C45.5449 54.0647 46.065 51.3178 45.2783 50.0021C41.3878 43.4951 37.0046 37.2828 32.1752 30.7403ZM48.4973 248.997C46.2429 252.484 43.3977 255.743 41.9328 259.535C40.8776 262.267 40.6175 266.217 41.8412 268.728C44.4383 274.057 48.2392 278.799 51.5386 283.786C53.2157 286.322 55.0529 286.866 56.901 284.048C60.5435 278.494 64.3343 273.012 67.5338 267.208C68.4404 265.564 68.2308 262.519 67.2925 260.789C64.3699 255.401 60.833 250.348 57.5727 245.141C55.4199 241.703 53.2487 241.993 51.0411 245.034C50.2618 246.108 49.5843 247.255 48.4973 248.997ZM130.009 159.485C124.546 150.541 123.156 150.575 117.623 159.785C117.537 159.928 117.48 160.096 117.369 160.213C108.444 169.593 109.032 178.289 117.222 188.451C124.645 197.661 123.753 198.38 130.268 188.597C139.811 174.269 139.811 174.269 130.009 159.485ZM106.361 67.1938C105.966 66.6573 105.579 66.1144 105.174 65.5853C101.322 60.5514 100.645 60.5515 97.0789 65.9007C94.2152 70.1961 91.4866 74.5814 88.6412 78.8893C86.4304 82.2365 86.7409 85.4969 88.8439 88.7043C91.8584 93.3019 94.9915 97.8228 97.9486 102.457C100.4 106.298 102.624 105.487 104.746 102.285C107.782 97.704 110.59 92.9663 113.743 88.4693C116.112 85.0896 115.857 82.1227 113.608 78.8365C111.164 75.267 109.029 71.4863 106.361 67.1938Z" fill="#CD2127"/>
<path d="M183.18 228.845C183.198 231.794 183.81 234.834 182.703 236.993C180.141 241.99 176.825 246.614 173.665 251.288C171.073 255.122 169.236 255.115 166.557 251.257C163.339 246.622 160.312 241.855 157.181 237.158C155.103 234.039 155.132 231.092 157.332 227.942C160.562 223.317 163.527 218.508 166.636 213.798C169.241 209.851 170.771 209.805 173.545 213.891C176.807 218.697 179.853 223.648 183.18 228.845Z" fill="#C21A21"/>
<path d="M167.5 194.5C163.887 189.111 160.557 183.7 157.081 178.622C155.048 175.652 154.981 172.879 157.064 169.872C160.379 165.088 163.612 160.242 166.711 155.316C168.892 151.85 171.144 152.015 173.225 155.084C176.77 160.31 180.307 165.574 183.31 171.113C184.216 172.783 184.078 175.816 183.148 177.537C180.15 183.083 176.599 188.335 173.177 193.646C171.76 195.845 170.01 197.633 167.5 194.5Z" fill="#C21A21"/>
<path d="M164.187 37.174C165.076 35.7383 165.693 34.5494 166.479 33.4846C169.219 29.7703 171.043 29.7152 173.659 33.5743C176.917 38.3816 180.241 43.1945 182.892 48.3373C183.916 50.3235 184.083 53.7103 183.062 55.6113C180.01 61.2948 176.185 66.5642 172.646 71.9846C170.86 74.7185 169.079 74.5923 167.316 71.9347C163.827 66.6772 160.338 61.4201 156.825 56.1791C154.769 53.1114 155.361 50.2179 157.29 47.3755C159.527 44.078 161.759 40.7772 164.187 37.174Z" fill="#C21A21"/>
<path d="M154.428 278.446C148.502 288.457 148.208 288.522 142.002 278.96C130.415 261.106 130.601 267.207 142.024 249.508C148.017 240.224 148.557 240.301 154.294 249.628C156.294 252.88 158.123 256.258 160.363 259.337C162.895 262.818 162.765 265.96 160.329 269.365C158.3 272.199 156.512 275.207 154.428 278.446Z" fill="#C21A21"/>
<path d="M161.867 81.1039C161.724 83.4807 162.001 85.865 161.032 87.5196C157.935 92.8085 154.401 97.8442 150.984 102.943C149.147 105.682 147.066 105.948 145.131 103.082C141.605 97.8574 137.822 92.7525 134.904 87.1997C133.848 85.1892 134.138 81.6038 135.249 79.492C138.018 74.2297 141.646 69.4238 144.86 64.3902C147.074 60.923 149.191 61.2399 151.259 64.4358C154.773 69.8646 158.233 75.3284 161.867 81.1039Z" fill="#C21A21"/>
<path d="M129.005 127.995C128.046 129.381 127.336 130.511 126.512 131.549C124.81 133.69 122.873 134.022 121.23 131.631C117.47 126.157 113.617 120.718 110.349 114.954C109.424 113.323 109.66 110.22 110.618 108.485C113.663 102.974 117.304 97.7924 120.707 92.4783C122.87 89.1 124.931 89.2051 127.046 92.5591C130.234 97.6144 133.462 102.645 136.721 107.654C138.539 110.449 138.725 113.095 136.75 115.968C134.118 119.797 131.708 123.78 129.005 127.995Z" fill="#C21A21"/>
<path d="M102 184C106.349 190.401 110.718 196.881 114.645 203.218C115.341 204.341 115.768 206.431 115.192 207.413C111.028 214.508 106.574 221.433 101.479 229.585C95.7087 221.481 90.1939 214.957 87.3181 206.743C86.8824 205.498 87.1635 203.579 87.8653 202.432C91.4162 196.626 95.159 190.934 98.9977 185.314C99.9999 184 100.5 183.5 102 184Z" fill="#C21A21"/>
<path d="M45.2379 239.144C42.3288 243.649 39.6799 247.883 36.9012 252.029C34.8787 255.047 32.6879 255.004 30.684 251.961C27.3897 246.957 23.752 242.12 21.0627 236.806C19.9315 234.571 19.8936 230.814 21.0224 228.596C23.7227 223.29 27.3099 218.416 30.7322 213.503C33.3013 209.814 34.8606 209.945 37.3589 213.808C40.1597 218.138 42.7727 222.592 45.6466 226.872C48.4073 230.983 48.5118 234.898 45.2379 239.144Z" fill="#C21A21"/>
<path d="M20.0764 171.255C23.521 165.91 26.7295 160.848 30.1029 155.898C33.0049 151.64 34.6423 151.604 37.451 155.76C40.5254 160.308 43.8548 164.779 46.1659 169.709C47.3235 172.179 47.4685 176.075 46.313 178.483C43.7389 183.845 40.0591 188.677 36.8292 193.724C35.053 196.5 33.0996 197.016 31.0817 194.024C27.4514 188.641 23.6969 183.325 20.4261 177.728C19.3654 175.913 19.0001 173.5 20.0764 171.255Z" fill="#C21A21"/>
<path d="M74.3087 155.367C76.6906 151.548 78.9873 152.072 80.997 155.123C84.3723 160.247 87.9012 165.318 90.676 170.763C91.6896 172.752 91.5732 176.179 90.5217 178.192C87.6895 183.614 84.0819 188.632 80.7701 193.803C78.9467 196.649 76.9871 196.867 75.0317 193.963C71.5088 188.731 68.0212 183.474 64.5449 178.211C62.5205 175.146 63.2058 172.306 65.1559 169.431C68.2296 164.9 71.1431 160.26 74.3087 155.367Z" fill="#C21A21"/>
<path d="M157.809 117.175C154.808 113.067 155.5 109.628 158.203 105.957C161.35 101.684 164.065 97.0911 166.923 92.6089C168.989 89.3686 170.984 88.9154 173.204 92.4894C176.359 97.5676 179.765 102.499 182.712 107.692C183.685 109.408 184.563 112.283 183.787 113.699C179.918 120.766 175.485 127.524 170.409 135.753C165.708 128.829 161.856 123.154 157.809 117.175Z" fill="#C21A21"/>
<path d="M110.699 228.817C114.078 223.637 117.166 218.702 120.446 213.899C123.22 209.837 124.792 209.792 127.427 213.748C130.65 218.586 133.632 223.584 136.732 228.505C138.607 231.482 138.651 234.26 136.538 237.283C133.301 241.912 130.482 246.831 127.273 251.48C124.628 255.311 123.209 255.257 120.658 251.508C117.385 246.697 113.883 241.993 111.153 236.883C109.5 234.5 109.5 231.5 110.699 228.817Z" fill="#C21A21"/>
<path d="M67.7916 223.811C70.2538 220.022 72.4368 216.481 74.7989 213.064C76.6207 210.429 78.7283 210.007 80.6412 213.025C84.0203 218.355 87.692 223.55 90.4843 229.178C91.5328 231.291 91.3023 234.867 90.2071 237.049C87.6111 242.223 84.1966 246.993 81.02 251.866C78.8571 255.184 76.6296 254.949 74.5047 251.734C71.2963 246.879 68.0672 242.037 64.8391 237.195C61.3057 231.895 65.1645 228.156 67.7916 223.811Z" fill="#C21A21"/>
<path d="M68.7989 279.795C70.6148 276.982 72.1251 274.394 73.874 271.978C75.8291 269.277 78.103 268.673 80.164 271.884C83.6566 277.327 87.2453 282.728 90.3406 288.393C91.1879 289.944 91.1458 292.792 90.2654 294.331C86.9759 300.085 83.1861 305.554 79.5485 311.106C77.9635 313.526 76.2131 313.717 74.5293 311.206C70.8318 305.691 66.8625 300.32 63.6811 294.519C62.649 292.637 63.1571 289.392 63.9828 287.146C64.9273 284.577 67.0103 282.427 68.7989 279.795Z" fill="#C21A21"/>
<path d="M40.5 79.5C43.79 74.4505 48.0602 69.1071 51.104 64.3467C53.0884 61.2432 55.2833 61.1006 57.2625 64.1191C60.9056 69.6752 64.5387 75.2619 67.6992 81.0943C68.5304 82.6283 68.2783 85.4824 67.3781 87.0879C64.3759 92.4422 60.8523 97.5041 57.531 102.68C55.4033 105.995 53.3188 106.04 51.1336 102.693C48.0435 97.9604 44.4005 93.5082 41.954 88.47C39.5 84 38.9999 83 40.5 79.5Z" fill="#C21A21"/>
<path d="M87.0001 265C90.9012 257.766 94.9604 250.649 99.1696 243.971C99.5728 243.331 103.237 243.554 103.879 244.453C107.738 249.861 111.359 255.47 114.586 261.275C115.452 262.833 115.399 265.72 114.513 267.287C111.241 273.07 107.488 278.584 103.822 284.138C102.334 286.392 100.338 287.02 98.7116 284.39C94.7917 278.052 90.8361 271.793 87.0001 265Z" fill="#C21A21"/>
<path d="M17.9147 114.87C17.8336 112.61 17.2689 110.31 18.1223 108.825C21.3435 103.22 24.9248 97.8107 28.5766 92.4685C30.4687 89.7006 32.8756 90.0558 34.6347 92.6548C38.167 97.8739 41.8273 103.061 44.7095 108.636C45.705 110.562 45.3067 114.001 44.2249 116.053C41.4481 121.32 38.0025 126.245 34.6841 131.213C32.6465 134.264 30.3767 133.991 28.4257 131.053C24.9359 125.799 21.5257 120.491 17.9147 114.87Z" fill="#C21A21"/>
<path d="M162 208C158.548 213.525 154.946 219.383 151.558 224.519C149.348 227.869 146.98 228.05 144.655 224.474C141.571 219.732 138.019 215.239 135.46 210.234C134.301 207.966 134.027 204.207 135.13 202.024C137.889 196.565 141.688 191.635 145.024 186.463C147.257 183.002 149.205 183.287 151.309 186.64C154.402 191.569 158.5 196.5 161 202C162.068 203.92 162.5 205.5 162 208Z" fill="#C21A21"/>
<path d="M121.141 310.689C117.627 305.421 113.934 300.631 111.173 295.354C110.011 293.134 109.832 289.39 110.928 287.2C113.513 282.031 117.046 277.321 120.358 272.538C123.003 268.719 124.851 268.652 127.548 272.533C130.865 277.307 134.21 282.144 136.732 287.347C137.778 289.503 137.578 293.117 136.454 295.3C133.651 300.748 130.004 305.762 126.674 310.936C124.935 313.637 123.134 313.686 121.141 310.689Z" fill="#C21A21"/>
<path d="M159.323 152.316C157.225 155.548 155.285 158.45 153.4 161.387C151.509 164.332 149.62 165.005 147.43 161.646C144.254 156.772 140.525 152.18 137.99 146.999C136.742 144.449 136.625 140.381 137.793 137.818C140.111 132.728 143.551 128.12 146.761 123.475C149.477 119.544 151.193 119.655 153.806 123.562C156.391 127.428 158.696 131.508 161.543 135.167C165.139 139.788 165.524 144.084 161.626 148.629C160.771 149.626 160.205 150.871 159.323 152.316Z" fill="#C21A21"/>
<path d="M112.292 131.716C112.889 132.551 113.239 133.121 113.658 133.634C118.298 139.325 118.307 144.858 113.609 150.653C110.902 153.993 108.745 157.783 106.395 161.406C104.476 164.364 102.575 164.974 100.427 161.63C97.2861 156.74 94.1219 151.864 90.9293 147.008C88.656 143.549 88.7654 140.248 91.0992 136.812C94.1773 132.28 97.0078 127.58 100.062 123.032C102.18 119.877 104.504 119.8 106.667 123.058C108.503 125.824 110.276 128.633 112.292 131.716Z" fill="#C21A21"/>
<path d="M69.1885 101.171C71.164 98.0575 72.9248 95.2364 74.731 92.4446C76.6139 89.5342 78.6424 88.8583 80.7731 92.2081C84.163 97.5378 87.81 102.734 90.7495 108.303C91.7388 110.177 91.7371 113.453 90.7469 115.327C87.8825 120.747 84.3336 125.812 80.9571 130.953C79.0203 133.902 76.8324 134.154 74.7434 131.048C71.4017 126.081 67.6997 121.292 64.9761 116.002C63.8472 113.81 64.3289 110.379 65.0378 107.772C65.66 105.485 67.6229 103.561 69.1885 101.171Z" fill="#C21A21"/>
<path d="M131.057 38.9439C140.049 53.5361 140.526 50.2629 130.892 65.5371C123.634 77.0451 125.166 76.1677 117.065 66.0755C109.327 56.4346 107.748 48.0169 116.8 38.8281C116.914 38.7121 116.984 38.5518 117.073 38.4116C123.642 28.1196 124.583 28.1345 131.057 38.9439Z" fill="#C21A21"/>
<path d="M71.5736 37.5513C77.0595 28.3038 78.0708 28.2967 83.7783 37.1857C84.5847 38.4417 85.1385 39.9241 86.1496 40.974C93.6012 48.7115 92.3738 56.2005 85.871 63.7931C83.9414 66.0461 82.5517 68.7533 80.8032 71.1719C78.7503 74.0116 76.5225 74.1837 74.4999 71.1504C71.0037 65.9068 67.2551 60.7832 64.3396 55.2276C63.3609 53.3628 63.9652 50.0404 64.9627 47.9061C66.6307 44.3368 69.1961 41.1868 71.5736 37.5513Z" fill="#C21A21"/>
<path d="M62.4058 217.406C60.5747 220.216 58.9481 222.727 57.3125 225.231C55.6252 227.815 53.6332 228.172 51.8192 225.546C48.1372 220.215 44.2259 214.969 41.2789 209.241C40.1705 207.086 40.6805 203.297 41.8469 200.943C44.1917 196.213 47.4502 191.927 50.4148 187.514C53.0885 183.533 55.3833 183.371 58.0616 187.262C61.3552 192.047 64.6466 196.894 67.2541 202.06C68.257 204.047 67.9713 207.189 67.2009 209.438C66.2566 212.194 64.1886 214.565 62.4058 217.406Z" fill="#C21A21"/>
<path d="M53.1901 160.755C50.041 156.047 47.1469 151.59 44.1322 147.217C41.7918 143.823 41.6034 140.546 43.9576 137.061C47.0233 132.523 49.8914 127.851 52.9583 123.314C55.4388 119.644 57.6012 119.619 60.1906 123.422C63.3636 128.081 66.6667 132.735 69.0881 137.787C70.1945 140.095 70.2627 143.803 69.1616 146.085C66.6541 151.281 63.193 156.027 60.0023 160.879C57.9748 163.962 55.5 164.5 53.1901 160.755Z" fill="#C21A21"/>
<path d="M32.5 30.5C37.0195 36.9294 41.3878 43.4951 45.2783 50.0021C46.065 51.3178 45.5449 54.0647 44.6681 55.6064C41.7193 60.7916 38.384 65.7611 35.1051 70.753C32.8868 74.1303 30.5206 74.2832 28.1989 70.7723C24.9949 65.9272 21.5033 61.2425 18.7044 56.1746C17.6682 54.2984 17.31 51.0319 18.2564 49.2628C21.3768 43.4299 25.1631 37.9429 28.8823 32.4507C30.5 31 31.0685 30.9408 32.5 30.5Z" fill="#C21A21"/>
<path d="M48.6788 248.683C49.5843 247.255 50.2618 246.108 51.0411 245.034C53.2487 241.993 55.4199 241.703 57.5727 245.141C60.833 250.348 64.3699 255.401 67.2925 260.789C68.2308 262.519 68.4404 265.564 67.5338 267.208C64.3343 273.012 60.5435 278.494 56.901 284.048C55.0529 286.866 53.2157 286.322 51.5386 283.786C48.2392 278.799 44.4383 274.057 41.8412 268.728C40.6175 266.217 40.8776 262.267 41.9328 259.535C43.3977 255.743 46.2429 252.484 48.6788 248.683Z" fill="#C21A21"/>
<path d="M130 159C139.603 173.482 140.5 174 130.268 188.597C123.753 198.38 124.645 197.661 117.222 188.451C109.032 178.289 108.444 169.593 117.369 160.213C117.48 160.096 117.537 159.928 117.623 159.785C123.156 150.575 124.339 149.753 130 159Z" fill="#C21A21"/>
<path d="M106.56 67.4958C109.029 71.4863 111.164 75.267 113.608 78.8365C115.857 82.1227 116.112 85.0896 113.743 88.4693C110.59 92.9663 107.782 97.704 104.746 102.285C102.624 105.487 100.4 106.298 97.9486 102.457C94.9915 97.8228 91.8584 93.3019 88.8439 88.7043C86.7409 85.4969 86.4304 82.2365 88.6412 78.8893C91.4866 74.5814 94.2152 70.1961 97.0789 65.9007C100.645 60.5515 101.322 60.5514 105.174 65.5853C105.579 66.1144 105.966 66.6573 106.56 67.4958Z" fill="#C21A21"/>
</svg>
