<svg width="1163" height="160" viewBox="0 0 1163 160" fill="none" xmlns="http://www.w3.org/2000/svg">
<path d="M635.465 159.906C628.741 158.574 622.343 157.693 616.248 155.827C597.412 150.06 583.808 138.326 575.891 119.993C570.388 107.251 568.971 93.9353 570.13 80.4588C572.262 55.692 581.903 34.2093 601.394 18.2008C614.118 7.75087 629.029 1.80022 645.822 0.281695C651.022 -0.0944205 656.044 -0.0944205 661.716 0.284837C665.943 1.08004 669.59 1.18737 673.088 1.96309C692.669 6.30509 708.194 16.5925 717.76 34.4691C727.386 52.4574 728.063 71.75 723.993 91.335C717.344 123.322 698.872 145.216 667.733 155.78C661.715 157.822 655.256 158.564 649 159.906C644.643 159.906 640.286 159.906 635.465 159.906ZM621.425 71.986C619.674 81.5722 618.691 91.1084 621.986 100.634C624.791 108.743 630.591 114.343 638.547 115.638C652.748 117.951 662.835 112.299 669.987 99.9441C676.096 89.3909 676.726 77.7758 675.92 66.0724C675.055 53.5149 663.185 42.1154 651.777 43.1084C635.889 44.4915 625.043 55.7049 621.425 71.986Z" fill="#EF4B25"/>
<path d="M803 159.906C798.311 159.906 793.622 159.906 788.28 159.524C782.293 158.394 776.804 158.205 771.65 156.795C753.257 151.764 739.556 141.258 734.034 122.204C731.249 112.594 731.216 102.772 732.981 92.9255C735.278 80.1108 737.499 67.2825 739.749 54.4594C742.168 40.6708 744.294 26.8224 747.089 13.1107C749.408 1.73676 745.853 2.90235 757.852 2.90493C771.144 2.90778 784.436 2.90558 797.801 2.90558C797.885 4.0162 798.07 4.68608 797.961 5.30373C795.324 20.2061 792.631 35.0985 790 50.0019C787.566 63.7895 785.398 77.6278 782.713 91.3656C781.219 99.0073 782.109 105.892 787.931 111.189C793.582 116.331 800.645 115.822 807.452 114.002C819.217 110.855 822.609 100.847 824.853 90.7468C827.498 78.8397 828.96 66.6742 831.118 54.6536C834.19 37.5391 837.428 20.4545 840.599 3.33666C856.925 3.33666 873.403 3.33666 890.086 3.33666C889.66 5.37309 889.298 6.94891 889.004 8.53735C887.02 19.2508 885.023 29.962 883.084 40.6837C881.027 52.0573 879.272 63.4915 876.945 74.8086C874.203 88.1393 872.191 101.794 867.714 114.555C859.815 137.071 843.298 151.14 820.018 156.851C814.432 158.221 808.677 158.906 803 159.906Z" fill="#EF4B25"/>
<path d="M1163 2.90558C1163 4.61995 1163 6.33433 1162.63 8.65009C1160.48 20.1967 1158.84 31.1677 1156.74 42.0506C1156.5 43.2592 1153.68 44.7657 1152.04 44.783C1133.71 44.977 1115.38 44.9056 1097.05 44.9056C1094.09 44.9056 1091.14 44.9056 1088.43 44.9056C1087.56 49.4693 1086.79 53.4496 1085.91 58.0323C1106.75 58.0323 1127.28 58.0323 1147.89 58.0323C1145.45 71.9996 1143.1 85.3991 1140.73 98.9056C1138.43 98.9056 1136.61 98.9056 1134.79 98.9056C1117.46 98.9056 1100.13 98.8457 1082.8 99.0058C1081.21 99.0205 1078.52 100.157 1078.24 101.256C1077.14 105.58 1076.8 110.097 1076.12 114.976C1098.9 114.976 1121.33 114.976 1143.77 114.976C1141.31 129.114 1138.92 142.86 1136.52 156.618C1097.66 156.618 1058.92 156.618 1019.87 156.618C1021.76 145.543 1023.53 134.784 1025.43 124.048C1027.9 110.107 1030.52 96.1917 1032.99 82.2497C1035.17 69.9009 1037.19 57.5225 1039.37 45.1729C1041.52 32.9924 1044.19 20.8851 1045.79 8.63585C1046.43 3.75022 1048.07 2.80066 1052.52 2.8191C1089.34 2.97184 1126.17 2.90558 1163 2.90558Z" fill="#EF4B25"/>
<path d="M939.466 159.906C933.824 158.909 928.635 157.976 923.475 156.905C907.95 153.685 895.484 145.6 887.733 131.794C884.013 125.168 882.541 117.28 879.844 109.357C882.368 109.131 883.62 108.922 884.873 108.92C899.199 108.897 913.525 108.82 927.847 109.019C929.541 109.043 931.916 110.181 932.779 111.554C938.179 120.151 951.077 123.455 959.344 117.584C961.256 116.227 963.026 112.757 962.668 110.629C962.267 108.248 959.775 105.164 957.49 104.342C948.504 101.113 939.26 98.5902 930.077 95.9246C920.465 93.1345 911.255 89.8555 903.895 82.4534C898.086 76.6111 895.658 69.5309 895.085 61.8012C893.759 43.9239 899.358 28.529 912.955 16.4939C921.681 8.77095 932.046 4.22469 943.402 1.94681C946.763 1.27254 950.221 1.0783 953.817 0.284835C959.022 -0.0944206 964.044 -0.0944206 969.716 0.284832C973.779 1.07832 977.228 1.3062 980.601 1.93862C996.254 4.87369 1009.72 11.4247 1018.21 25.6696C1022.76 33.3099 1025.47 41.5063 1024.86 50.9051C1023.44 50.9051 1022.46 50.9051 1021.48 50.9051C1006.5 50.9051 991.515 50.9051 976.618 50.9051C973.256 41.4259 965.467 37.5556 955.02 39.8887C950.545 40.8881 947.622 43.4507 947.054 48.0371C946.459 52.8449 950.85 53.6153 953.752 54.6686C963.041 58.0396 972.49 60.9972 981.965 63.8192C1009.81 72.1121 1018.01 87.4425 1014.72 112.29C1011.62 135.718 996.474 148.583 974.254 155.781C967.741 157.891 960.764 158.57 954 159.906C949.311 159.906 944.622 159.906 939.466 159.906Z" fill="#EF4B25"/>
<path d="M0 94.3688C6.08083 76.9949 19.1272 66.3513 33.3757 56.7816C34.0461 56.3313 34.6017 55.7101 35.591 55.4273C35.5927 57.4263 35.2141 59.1665 34.5148 61.0496C34.0958 61.7613 33.9976 62.3302 33.943 62.8957C33.9867 62.8924 33.9742 62.8057 33.6631 62.552C26.7681 69.4358 20.6746 76.7946 20.985 87.3589C21.1576 93.235 24.3396 97.6279 27.9118 102.257C40.1298 113.862 54.6705 119.423 71.4096 120.822C75.8727 121.526 79.9267 122.149 84.3333 122.981C102.563 126.358 120.332 125.472 138.444 121.836C143.573 121.174 148.286 120.456 153.382 119.666C163.99 116.699 174.216 113.805 184.441 110.91C180.91 113.37 177.179 115.304 173.312 116.911C165.86 120.007 158.331 122.918 150.835 125.906C141.376 127.98 131.973 130.378 122.442 132.035C112.818 133.708 103.091 135.423 93.3664 135.718C79.8075 136.13 66.0986 136.201 52.6561 134.658C36.4034 132.792 20.3496 128.886 7.55112 117.604C4.52981 114.941 2.9363 110.658 0.342988 107.013C0 102.881 0 98.8565 0 94.3688Z" fill="#0A406B"/>
<path d="M150.905 126.327C158.331 122.918 165.86 120.007 173.312 116.911C177.179 115.304 180.91 113.37 184.441 110.91C174.216 113.805 163.99 116.699 153.382 119.234C154.933 106.397 156.867 93.9202 158.801 81.4431C158.656 81.3805 158.512 81.3179 158.367 81.2552C151.587 94.7641 144.807 108.273 138.027 121.782C120.332 125.472 102.563 126.358 84.3414 122.551C82.2392 108.394 80.4815 94.8769 78.7238 81.3599C76.9764 85.0619 76.2111 88.9257 75.5639 92.8091C74.0132 102.114 72.5181 111.428 71.0006 120.739C54.6705 119.423 40.1298 113.862 27.9821 101.832C28.1839 99.6184 28.3753 98.18 28.6016 96.7472C30.3887 85.4328 32.1825 74.1194 33.9742 62.8057C33.9742 62.8057 33.9867 62.8924 34.2695 62.8317C34.6467 62.1495 34.7411 61.5281 34.8355 60.9067C35.2141 59.1665 35.5927 57.4263 35.9032 55.2955C38.9415 37.6499 42.0479 20.3948 45.1692 3.0573C65.4704 3.0573 85.4196 3.0573 105.443 3.0573C106.185 8.12686 106.91 13.0755 107.491 18.5885C107.906 21.4461 108.465 23.7393 109.014 26.4631C109.005 27.8914 108.894 28.904 109.024 29.8844C110.336 39.738 111.625 49.5954 113.049 59.4331C114.129 66.8977 115.395 74.3355 116.74 82.7964C117.824 80.8901 118.48 79.8701 119.008 78.7882C126.366 63.7352 133.716 48.6784 141.044 33.6109C142.741 30.1204 144.35 26.5867 146.314 22.9162C148.681 18.8245 150.733 14.8895 152.786 10.9545C155.838 2.90552 155.838 2.90552 164.043 2.90551C180.675 2.90551 197.307 2.90552 213.938 2.90552C215.563 2.90552 217.188 2.90552 218.924 2.90552C218.234 7.56706 217.617 11.732 216.644 16.4944C214.914 25.6969 213.539 34.302 212.093 43.3209C211.526 46.4388 210.984 49.1354 210.542 51.8482C208.687 63.2314 206.862 74.6194 205.019 85.9622C205.013 85.9187 205.1 85.912 204.774 85.976C204.353 86.6614 204.259 87.2827 204.079 88.2465C199.688 92.7966 195.382 97.0043 191.076 101.212C191.234 101.455 191.392 101.699 191.55 101.942C194.978 100.264 198.406 98.5851 201.834 96.9066C200.531 105.967 199.348 115.046 197.894 124.081C196.397 133.386 194.659 142.653 192.972 151.926C192.685 153.503 192.122 155.03 191.656 156.686C176.506 156.686 161.42 156.686 145.911 156.686C147.631 146.521 149.303 136.634 150.905 126.327ZM190.532 107.663C190.403 108.055 190.254 108.441 190.165 108.842C190.148 108.921 190.361 109.052 190.468 109.158C190.596 108.767 190.723 108.376 190.532 107.663ZM188.822 109.876C188.727 109.47 188.632 109.064 188.536 108.657C188.416 108.746 188.183 108.851 188.193 108.922C188.25 109.334 188.364 109.739 188.822 109.876ZM186.262 110.721C186.376 110.879 186.491 111.036 186.605 111.194C186.582 110.975 186.559 110.755 186.262 110.721Z" fill="#EF4B25"/>
<path d="M425.04 7.16384C425.847 3.98091 427.13 2.71363 430.501 2.77925C445.477 3.07073 460.462 2.90561 475.657 2.90561C472.424 21.2536 469.243 39.3161 466.013 57.6526C481.941 57.6526 497.698 57.6526 513.615 57.6526C516.811 39.5228 519.999 21.4449 523.225 3.14415C539.705 3.14415 556.138 3.14415 572.916 3.14415C563.898 54.3571 554.907 105.41 545.881 156.669C529.304 156.669 512.867 156.669 496.191 156.669C499.509 137.867 502.805 119.191 506.208 99.9056C498.892 99.9056 491.941 99.9056 484.991 99.9056C478.494 99.9056 471.967 100.292 465.51 99.7843C460.268 99.3723 457.978 100.875 457.16 106.301C454.636 123.042 451.604 139.706 448.727 156.648C432.299 156.648 415.874 156.648 399.051 156.648C400.495 148.073 401.883 139.634 403.343 131.208C405.537 118.54 407.777 105.88 410.005 93.2172C412.12 81.1938 414.254 69.1735 416.364 57.1491C418.587 44.485 420.793 31.8179 423.004 19.1518C423.676 15.3035 424.341 11.4541 425.04 7.16384Z" fill="#EF4B25"/>
<path d="M341.006 47.9646C337.128 70.381 333.256 92.3564 329.303 114.797C351.147 114.797 372.823 114.797 395.228 114.797C392.758 129.06 390.384 142.769 387.977 156.674C349.353 156.674 310.91 156.674 272.324 156.674C281.326 105.481 290.313 54.37 299.323 3.13073C315.906 3.13073 332.339 3.13073 349.071 3.13073C346.352 18.1078 343.681 32.8157 341.006 47.9646Z" fill="#EF4B25"/>
<path d="M230.835 23.9045C231.979 17.0155 233.123 10.1265 234.284 3.13813C250.928 3.13813 267.365 3.13813 284.008 3.13813C274.96 54.4948 265.958 105.59 256.945 156.753C240.179 156.753 223.878 156.753 207.483 156.753C211.342 133.874 215.148 111.103 219.106 88.3584C219.342 87.0032 220.667 85.728 221.719 84.6428C227.089 79.1051 233.425 74.256 237.738 68.0036C243.614 59.4862 246.098 49.6683 241.333 38.7874C237.512 33.4795 234.174 28.692 230.835 23.9045Z" fill="#EF4B25"/>
<path d="M230.479 23.8987C234.174 28.692 237.512 33.4795 241.009 38.5864C242.248 51.6055 238.611 62.8471 230.07 72.2289C221.762 81.3554 212.767 89.7881 201.983 96.5834C198.406 98.5852 194.978 100.264 191.55 101.942C191.392 101.699 191.234 101.455 191.076 101.212C195.382 97.0043 199.688 92.7966 204.4 88.1038C204.904 87.0498 205.002 86.4809 205.1 85.912C205.1 85.912 205.013 85.9187 205.326 86.2153C209.027 82.152 213.086 78.1525 215.661 73.3564C220.871 63.6562 221.139 50.3189 212.164 42.9071C213.539 34.302 214.914 25.6969 216.644 16.9151C221.374 19.1232 225.749 21.508 230.479 23.8987Z" fill="#0B406B"/>
<path d="M60.6561 156.905C46.2259 156.906 32.2621 156.906 18.1639 156.906C19.162 150.416 19.9535 144.312 21.1926 138.3C21.3675 137.452 24.0289 136.215 25.0283 136.576C36.0235 140.541 47.2565 142.939 58.9909 142.966C61.2092 142.971 63.4258 143.756 66.2252 144.292C65.7154 147.783 65.4814 151.193 64.596 154.424C64.3044 155.488 62.3284 156.091 60.6561 156.905Z" fill="#EF4B25"/>
<path d="M115.785 138.864C120.931 137.762 125.641 136.692 130.887 135.499C127.701 142.486 124.947 148.862 121.82 155.05C121.297 156.086 119.168 156.802 117.767 156.825C108.465 156.98 99.1595 156.905 89.2636 156.905C88.5854 152.458 87.9138 148.054 87.1666 143.154C96.4914 141.745 105.92 140.32 115.785 138.864Z" fill="#EF4B25"/>
<path d="M109.025 26.0325C108.465 23.7393 107.906 21.4461 107.673 18.9458C122.649 16.1345 137.298 13.5303 152.366 10.9403C150.733 14.8895 148.681 18.8245 145.85 22.842C133.056 23.9604 121.041 24.9964 109.025 26.0325Z" fill="#0B406B"/>
<path d="M34.5148 61.0496C34.7411 61.5281 34.6467 62.1495 34.2258 62.835C33.9976 62.3302 34.0958 61.7613 34.5148 61.0496Z" fill="white"/>
<path d="M190.691 107.824C190.723 108.376 190.596 108.767 190.468 109.158C190.361 109.052 190.148 108.921 190.165 108.842C190.254 108.441 190.403 108.055 190.691 107.824Z" fill="#EF4B25"/>
<path d="M188.64 110.011C188.364 109.739 188.25 109.334 188.193 108.922C188.183 108.851 188.416 108.746 188.536 108.657C188.632 109.064 188.727 109.47 188.64 110.011Z" fill="#EF4B25"/>
<path d="M204.774 85.976C205.002 86.4809 204.904 87.0497 204.485 87.7614C204.259 87.2827 204.353 86.6614 204.774 85.976Z" fill="white"/>
<path d="M186.399 110.628C186.559 110.755 186.582 110.975 186.605 111.194C186.491 111.036 186.376 110.879 186.399 110.628Z" fill="#EF4B25"/>
</svg>
